;Layer: Drill PTH
;EasyEDA v6.3.22, 2020-01-25T23:38:18+00:00
;9703bbce67ff49f59cf1a8212616356f,50f9dc15ed21485093dd89aa00421481,09
;Gerber Generator version 0.2
M48
INCH,LZ,00.0000
;Holesize 1 = 0.012 INCH
T01C0.012
;Holesize 2 = 0.025 INCH
T02C0.025
;Holesize 3 = 0.036 INCH
T03C0.036
;Holesize 4 = 0.040 INCH
T04C0.040
;Holesize 5 = 0.043 INCH
T05C0.043
;Holesize 6 = 0.047 INCH
T06C0.047
;Holesize 7 = 0.055 INCH
T07C0.055
;Holesize 8 = 0.079 INCH
T08C0.079
;Holesize 9 = 0.110 INCH
T09C0.110
%
G05
G90
T01
X+012790Y+005167
X+014600Y+006247
X+013780Y+010697
X+014795Y+013669
X+015295Y+013669
X+015795Y+013669
X+016295Y+013669
X+014810Y+010697
X+014810Y+010317
X+014819Y+009657
X+013790Y+009667
X+014819Y+009997
X+015045Y+005919
X+013600Y+005847
X+002295Y+021503
X+014800Y+007047
X+014000Y+006895
X+013860Y+012185
X+014200Y+012095
X+014450Y+012465
X+012900Y+011747
X+005700Y+019465
X+005500Y+019165
X+006970Y+018127
X+006756Y+017900
X+015760Y+018147
X+016330Y+018137
X+013790Y+009977
X+013790Y+010317
X+013800Y+004707
X+013780Y+003677
X+013790Y+003977
X+013800Y+004377
X+014119Y+004697
X+014500Y+004727
X+014819Y+004707
X+014819Y+004387
X+014819Y+003987
X+014819Y+003657
X+014500Y+003667
X+014150Y+003657
X+014150Y+003977
X+014119Y+004357
X+014490Y+004377
X+014500Y+003957
T02
X+011880Y+013485
X+014750Y+013047
X+012800Y+017165
X+016250Y+005825
X+016300Y+011995
X+012690Y+006945
X+012710Y+013445
X+017795Y+017669
X+010680Y+017915
X+009480Y+016735
X+007545Y+014169
X+007545Y+012797
X+014360Y+017907
T03
X+001800Y+018665
T04
X+001800Y+016665
X+001800Y+017665
T05
X+004300Y+019165
X+004300Y+018165
X+004300Y+017165
X+004300Y+016165
X+004300Y+015165
X+004300Y+014165
X+003300Y+014165
X+003300Y+015165
X+003300Y+016165
X+003300Y+017165
X+003300Y+018165
X+022300Y+021165
X+022300Y+020165
X+021300Y+021165
X+021300Y+020165
X+020300Y+021165
X+020300Y+020165
X+019300Y+021165
X+019300Y+020165
X+018300Y+020165
X+017300Y+021165
X+017300Y+020165
X+016300Y+021165
X+016300Y+020165
X+015300Y+021165
X+015300Y+020165
X+014300Y+021165
X+014300Y+020165
X+013300Y+021165
X+013300Y+020165
X+012300Y+021165
X+012300Y+020165
X+011300Y+021165
X+011300Y+020165
X+010300Y+021165
X+010300Y+020165
X+009300Y+021165
X+009300Y+020165
X+008300Y+021165
X+008300Y+020165
X+007300Y+021165
X+007300Y+020165
X+006300Y+021165
X+006300Y+020165
X+005300Y+021165
X+005300Y+020165
X+004300Y+021165
X+004300Y+020165
X+003300Y+021165
X+022300Y+021165
X+022300Y+020165
X+021300Y+021165
X+021300Y+020165
X+020300Y+021165
X+020300Y+020165
X+019300Y+021165
X+019300Y+020165
X+018300Y+021165
X+018300Y+020165
X+017300Y+021165
X+017300Y+020165
X+016300Y+021165
X+016300Y+020165
X+015300Y+021165
X+015300Y+020165
X+014300Y+021165
X+014300Y+020165
X+013300Y+021165
X+013300Y+020165
X+012300Y+021165
X+012300Y+020165
X+011300Y+021165
X+011300Y+020165
X+010300Y+021165
X+010300Y+020165
X+009300Y+021165
X+009300Y+020165
X+008300Y+021165
X+008300Y+020165
X+007300Y+021165
X+007300Y+020165
X+006300Y+021165
X+006300Y+020165
X+005300Y+021165
X+005300Y+020165
X+004300Y+021165
X+004300Y+020165
X+003300Y+021165
X+004300Y+019165
X+004300Y+018165
X+004300Y+017165
X+004300Y+016165
X+004300Y+015165
X+004300Y+014165
X+003300Y+014165
X+003300Y+015165
X+003300Y+016165
X+003300Y+017165
X+003300Y+018165
T06
X+003300Y+007665
X+004300Y+007665
X+005300Y+007665
X+006300Y+007665
X+007300Y+007665
X+008300Y+007665
X+009300Y+007665
X+010300Y+007665
X+011300Y+007665
X+012300Y+007665
X+013300Y+007665
X+014300Y+007665
X+015300Y+007665
X+016300Y+007665
X+017300Y+007665
X+018300Y+007665
X+019300Y+007665
X+020300Y+007665
X+021300Y+007665
X+022300Y+007665
X+022300Y+001565
X+021300Y+001565
X+020300Y+001565
X+019300Y+001565
X+018300Y+001565
X+017300Y+001565
X+016300Y+001565
X+015300Y+001565
X+013300Y+001565
X+012300Y+001565
X+011300Y+001565
X+010300Y+001565
X+009300Y+001565
X+008300Y+001565
X+007300Y+001565
X+006300Y+001565
X+005300Y+001565
X+004300Y+001565
X+003300Y+001565
X+014300Y+001565
X+000800Y+013665
X+001800Y+013665
X+000800Y+010665
X+001800Y+010665
X+003300Y+007665
X+004300Y+007665
X+005300Y+007665
X+006300Y+007665
X+007300Y+007665
X+008300Y+007665
X+009300Y+007665
X+010300Y+007665
X+011300Y+007665
X+012300Y+007665
X+013300Y+007665
X+014300Y+007665
X+015300Y+007665
X+016300Y+007665
X+017300Y+007665
X+018300Y+007665
X+019300Y+007665
X+020300Y+007665
X+021300Y+007665
X+022300Y+007665
X+022300Y+001563
X+021300Y+001563
X+020300Y+001563
X+019300Y+001563
X+018300Y+001563
X+017300Y+001563
X+016300Y+001563
X+015300Y+001563
X+013300Y+001563
X+012300Y+001563
X+011300Y+001563
X+010300Y+001563
X+009300Y+001563
X+008300Y+001563
X+007300Y+001563
X+006300Y+001563
X+005300Y+001563
X+004300Y+001563
X+003300Y+001563
X+014300Y+001563
X+004300Y+019165
X+004300Y+018165
X+004300Y+017165
X+004300Y+016165
X+004300Y+015165
X+004300Y+014165
X+003300Y+014165
X+003300Y+015165
X+003300Y+016165
X+003300Y+017165
X+003300Y+018165
X+003300Y+019165
X+022300Y+021165
X+022300Y+020165
X+021300Y+021165
X+021300Y+020165
X+020300Y+021165
X+020300Y+020165
X+019300Y+021165
X+019300Y+020165
X+018300Y+021165
X+018300Y+020165
X+017300Y+021165
X+017300Y+020165
X+016300Y+021165
X+016300Y+020165
X+015300Y+021165
X+015300Y+020165
X+014300Y+021165
X+014300Y+020165
X+013300Y+021165
X+013300Y+020165
X+012300Y+021165
X+012300Y+020165
X+011300Y+021165
X+011300Y+020165
X+010300Y+021165
X+010300Y+020165
X+009300Y+021165
X+009300Y+020165
X+008300Y+021165
X+008300Y+020165
X+007300Y+021165
X+007300Y+020165
X+006300Y+021165
X+006300Y+020165
X+005300Y+021165
X+005300Y+020165
X+004300Y+021165
X+004300Y+020165
X+003300Y+021165
X+003300Y+020165
X+000800Y+013665
X+001800Y+013665
X+000800Y+010665
X+001800Y+010665
T07
X+001295Y+022669
T08
X+023878Y+010760
X+023878Y+022571
X+003800Y+022571
X+003800Y+010760
T09
X+001382Y+020665
X+024217Y+020665
X+001382Y+001374
X+024217Y+001374
M30
