G04 Layer: TopSolderMaskLayer*
G04 EasyEDA v6.3.22, 2020-01-25T23:38:18+00:00*
G04 9703bbce67ff49f59cf1a8212616356f,50f9dc15ed21485093dd89aa00421481,09*
G04 Gerber Generator version 0.2*
G04 Scale: 100 percent, Rotated: No, Reflected: No *
G04 Dimensions in inches *
G04 leading zeros omitted , absolute positions ,2 integer and 4 decimal *
%FSLAX24Y24*%
%MOIN*%
G90*
G70D02*

%ADD19R,0.026000X0.011800*%
%ADD20R,0.011800X0.026000*%
%ADD36C,0.019024*%
%ADD37C,0.031622*%
%ADD38C,0.078866*%
%ADD39C,0.082000*%
%ADD41C,0.086740*%
%ADD45C,0.082803*%
%ADD47C,0.068000*%
%ADD48C,0.128000*%
%ADD49C,0.145790*%
%ADD50C,0.208000*%

%LPD*%
G54D36*
G01X13780Y10059D02*
G01X13780Y9815D01*
G54D37*
G01X16280Y16203D02*
G01X16280Y16565D01*
G01X15780Y16203D02*
G01X15780Y16565D01*
G01X15280Y16203D02*
G01X15280Y16565D01*
G01X14780Y16203D02*
G01X14780Y16565D01*
G01X16280Y14045D02*
G01X16280Y14408D01*
G01X15780Y14045D02*
G01X15780Y14408D01*
G01X15280Y14045D02*
G01X15280Y14408D01*
G01X14780Y14045D02*
G01X14780Y14408D01*
G54D38*
G01X4300Y19165D03*
G01X4300Y18165D03*
G01X4300Y17165D03*
G01X4300Y16165D03*
G01X4300Y15165D03*
G01X4300Y14165D03*
G01X3300Y14165D03*
G01X3300Y15165D03*
G01X3300Y16165D03*
G01X3300Y17165D03*
G01X3300Y18165D03*
G01X22300Y21165D03*
G01X22300Y20165D03*
G01X21300Y21165D03*
G01X21300Y20165D03*
G01X20300Y21165D03*
G01X20300Y20165D03*
G01X19300Y21165D03*
G01X19300Y20165D03*
G01X18300Y20165D03*
G01X17300Y21165D03*
G01X17300Y20165D03*
G01X16300Y21165D03*
G01X16300Y20165D03*
G01X15300Y21165D03*
G01X15300Y20165D03*
G01X14300Y21165D03*
G01X14300Y20165D03*
G01X13300Y21165D03*
G01X13300Y20165D03*
G01X12300Y21165D03*
G01X12300Y20165D03*
G01X11300Y21165D03*
G01X11300Y20165D03*
G01X10300Y21165D03*
G01X10300Y20165D03*
G01X9300Y21165D03*
G01X9300Y20165D03*
G01X8300Y21165D03*
G01X8300Y20165D03*
G01X7300Y21165D03*
G01X7300Y20165D03*
G01X6300Y21165D03*
G01X6300Y20165D03*
G01X5300Y21165D03*
G01X5300Y20165D03*
G01X4300Y21165D03*
G01X4300Y20165D03*
G01X3300Y21165D03*
G54D39*
G01X3300Y7665D03*
G01X4300Y7665D03*
G01X5300Y7665D03*
G01X6300Y7665D03*
G01X7300Y7665D03*
G01X8300Y7665D03*
G01X9300Y7665D03*
G01X10300Y7665D03*
G01X11300Y7665D03*
G01X12300Y7665D03*
G01X13300Y7665D03*
G01X14300Y7665D03*
G01X15300Y7665D03*
G01X16300Y7665D03*
G01X17300Y7665D03*
G01X18300Y7665D03*
G01X19300Y7665D03*
G01X20300Y7665D03*
G01X21300Y7665D03*
G01X22300Y7665D03*
G01X22300Y1565D03*
G01X21300Y1565D03*
G01X20300Y1565D03*
G01X19300Y1565D03*
G01X18300Y1565D03*
G01X17300Y1565D03*
G01X16300Y1565D03*
G01X15300Y1565D03*
G01X13300Y1565D03*
G01X12300Y1565D03*
G01X11300Y1565D03*
G01X10300Y1565D03*
G01X9300Y1565D03*
G01X8300Y1565D03*
G01X7300Y1565D03*
G01X6300Y1565D03*
G01X5300Y1565D03*
G01X4300Y1565D03*
G01X3300Y1565D03*
G01X14300Y1565D03*
G54D38*
G01X22300Y21165D03*
G01X22300Y20165D03*
G01X21300Y21165D03*
G01X21300Y20165D03*
G01X20300Y21165D03*
G01X20300Y20165D03*
G01X19300Y21165D03*
G01X19300Y20165D03*
G01X18300Y21165D03*
G01X18300Y20165D03*
G01X17300Y21165D03*
G01X17300Y20165D03*
G01X16300Y21165D03*
G01X16300Y20165D03*
G01X15300Y21165D03*
G01X15300Y20165D03*
G01X14300Y21165D03*
G01X14300Y20165D03*
G01X13300Y21165D03*
G01X13300Y20165D03*
G01X12300Y21165D03*
G01X12300Y20165D03*
G01X11300Y21165D03*
G01X11300Y20165D03*
G01X10300Y21165D03*
G01X10300Y20165D03*
G01X9300Y21165D03*
G01X9300Y20165D03*
G01X8300Y21165D03*
G01X8300Y20165D03*
G01X7300Y21165D03*
G01X7300Y20165D03*
G01X6300Y21165D03*
G01X6300Y20165D03*
G01X5300Y21165D03*
G01X5300Y20165D03*
G01X4300Y21165D03*
G01X4300Y20165D03*
G01X3300Y21165D03*
G01X4300Y19165D03*
G01X4300Y18165D03*
G01X4300Y17165D03*
G01X4300Y16165D03*
G01X4300Y15165D03*
G01X4300Y14165D03*
G01X3300Y14165D03*
G01X3300Y15165D03*
G01X3300Y16165D03*
G01X3300Y17165D03*
G01X3300Y18165D03*
G36*
G01X366Y13232D02*
G01X366Y14099D01*
G01X1234Y14099D01*
G01X1234Y13232D01*
G01X366Y13232D01*
G37*
G54D41*
G01X1800Y13665D03*
G36*
G01X366Y10232D02*
G01X366Y11099D01*
G01X1234Y11099D01*
G01X1234Y10232D01*
G01X366Y10232D01*
G37*
G01X1800Y10665D03*
G54D38*
G01X3300Y7665D03*
G01X4300Y7665D03*
G01X5300Y7665D03*
G01X6300Y7665D03*
G01X7300Y7665D03*
G01X8300Y7665D03*
G01X9300Y7665D03*
G01X10300Y7665D03*
G01X11300Y7665D03*
G01X12300Y7665D03*
G01X13300Y7665D03*
G01X14300Y7665D03*
G01X15300Y7665D03*
G01X16300Y7665D03*
G01X17300Y7665D03*
G01X18300Y7665D03*
G01X19300Y7665D03*
G01X20300Y7665D03*
G01X21300Y7665D03*
G01X22300Y7665D03*
G01X22300Y1562D03*
G01X21300Y1562D03*
G01X20300Y1562D03*
G01X19300Y1562D03*
G01X18300Y1562D03*
G01X17300Y1562D03*
G01X16300Y1562D03*
G01X15300Y1562D03*
G01X13300Y1562D03*
G01X12300Y1562D03*
G01X11300Y1562D03*
G01X10300Y1562D03*
G01X9300Y1562D03*
G01X8300Y1562D03*
G01X7300Y1562D03*
G01X6300Y1562D03*
G01X5300Y1562D03*
G01X4300Y1562D03*
G01X3300Y1562D03*
G01X14300Y1562D03*
G01X4300Y19165D03*
G01X4300Y18165D03*
G01X4300Y17165D03*
G01X4300Y16165D03*
G01X4300Y15165D03*
G01X4300Y14165D03*
G01X3300Y14165D03*
G01X3300Y15165D03*
G01X3300Y16165D03*
G01X3300Y17165D03*
G01X3300Y18165D03*
G01X3300Y19165D03*
G01X22300Y21165D03*
G01X22300Y20165D03*
G01X21300Y21165D03*
G01X21300Y20165D03*
G01X20300Y21165D03*
G01X20300Y20165D03*
G01X19300Y21165D03*
G01X19300Y20165D03*
G01X18300Y21165D03*
G01X18300Y20165D03*
G01X17300Y21165D03*
G01X17300Y20165D03*
G01X16300Y21165D03*
G01X16300Y20165D03*
G01X15300Y21165D03*
G01X15300Y20165D03*
G01X14300Y21165D03*
G01X14300Y20165D03*
G01X13300Y21165D03*
G01X13300Y20165D03*
G01X12300Y21165D03*
G01X12300Y20165D03*
G01X11300Y21165D03*
G01X11300Y20165D03*
G01X10300Y21165D03*
G01X10300Y20165D03*
G01X9300Y21165D03*
G01X9300Y20165D03*
G01X8300Y21165D03*
G01X8300Y20165D03*
G01X7300Y21165D03*
G01X7300Y20165D03*
G01X6300Y21165D03*
G01X6300Y20165D03*
G01X5300Y21165D03*
G01X5300Y20165D03*
G01X4300Y21165D03*
G01X4300Y20165D03*
G01X3300Y21165D03*
G01X3300Y20165D03*
G36*
G01X366Y13232D02*
G01X366Y14099D01*
G01X1234Y14099D01*
G01X1234Y13232D01*
G01X366Y13232D01*
G37*
G54D41*
G01X1800Y13665D03*
G36*
G01X366Y10232D02*
G01X366Y11099D01*
G01X1234Y11099D01*
G01X1234Y10232D01*
G01X366Y10232D01*
G37*
G01X1800Y10665D03*
G36*
G01X13640Y3517D02*
G01X13640Y4857D01*
G01X14980Y4857D01*
G01X14980Y3517D01*
G01X13640Y3517D01*
G37*
G54D19*
G01X13310Y4876D03*
G01X13310Y4679D03*
G01X13310Y4482D03*
G01X13310Y4285D03*
G01X13310Y4088D03*
G01X13310Y3891D03*
G01X13310Y3695D03*
G01X13310Y3498D03*
G54D20*
G01X13621Y3187D03*
G01X13817Y3187D03*
G01X14014Y3187D03*
G01X14211Y3187D03*
G01X14408Y3187D03*
G01X14605Y3187D03*
G01X14802Y3187D03*
G01X14999Y3187D03*
G54D19*
G01X15310Y3498D03*
G01X15310Y3695D03*
G01X15310Y3891D03*
G01X15310Y4088D03*
G01X15310Y4285D03*
G01X15310Y4482D03*
G01X15310Y4679D03*
G01X15310Y4876D03*
G54D20*
G01X14999Y5187D03*
G01X14802Y5187D03*
G01X14605Y5187D03*
G01X14408Y5187D03*
G01X14211Y5187D03*
G01X14014Y5187D03*
G01X13817Y5187D03*
G01X13621Y5187D03*
G36*
G01X13630Y9507D02*
G01X13630Y10847D01*
G01X14969Y10847D01*
G01X14969Y9507D01*
G01X13630Y9507D01*
G37*
G54D19*
G01X13300Y10866D03*
G01X13300Y10669D03*
G01X13300Y10472D03*
G01X13300Y10275D03*
G01X13300Y10078D03*
G01X13300Y9881D03*
G01X13300Y9685D03*
G01X13300Y9488D03*
G54D20*
G01X13611Y9177D03*
G01X13807Y9177D03*
G01X14004Y9177D03*
G01X14201Y9177D03*
G01X14398Y9177D03*
G01X14595Y9177D03*
G01X14792Y9177D03*
G01X14988Y9177D03*
G54D19*
G01X15300Y9488D03*
G01X15300Y9685D03*
G01X15300Y9881D03*
G01X15300Y10078D03*
G01X15300Y10275D03*
G01X15300Y10472D03*
G01X15300Y10669D03*
G01X15300Y10866D03*
G54D20*
G01X14988Y11177D03*
G01X14792Y11177D03*
G01X14595Y11177D03*
G01X14398Y11177D03*
G01X14201Y11177D03*
G01X14004Y11177D03*
G01X13807Y11177D03*
G01X13611Y11177D03*
G36*
G01X13209Y16909D02*
G01X13209Y17422D01*
G01X13683Y17422D01*
G01X13683Y16909D01*
G01X13209Y16909D01*
G37*
G36*
G01X13918Y16909D02*
G01X13918Y17422D01*
G01X14391Y17422D01*
G01X14391Y16909D01*
G01X13918Y16909D01*
G37*
G36*
G01X2053Y22404D02*
G01X2053Y22877D01*
G01X2567Y22877D01*
G01X2567Y22404D01*
G01X2053Y22404D01*
G37*
G36*
G01X2053Y21774D02*
G01X2053Y22247D01*
G01X2567Y22247D01*
G01X2567Y21774D01*
G01X2053Y21774D01*
G37*
G36*
G01X16903Y17412D02*
G01X16903Y17926D01*
G01X17377Y17926D01*
G01X17377Y17412D01*
G01X16903Y17412D01*
G37*
G36*
G01X16272Y17412D02*
G01X16272Y17926D01*
G01X16747Y17926D01*
G01X16747Y17412D01*
G01X16272Y17412D01*
G37*
G36*
G01X14718Y17490D02*
G01X14718Y18004D01*
G01X15191Y18004D01*
G01X15191Y17490D01*
G01X14718Y17490D01*
G37*
G36*
G01X15347Y17490D02*
G01X15347Y18004D01*
G01X15822Y18004D01*
G01X15822Y17490D01*
G01X15347Y17490D01*
G37*
G54D45*
G01X1295Y22669D03*
G36*
G01X10088Y15699D02*
G01X10088Y16212D01*
G01X10562Y16212D01*
G01X10562Y15699D01*
G01X10088Y15699D01*
G37*
G36*
G01X10718Y15699D02*
G01X10718Y16212D01*
G01X11192Y16212D01*
G01X11192Y15699D01*
G01X10718Y15699D01*
G37*
G36*
G01X11043Y17244D02*
G01X11043Y17717D01*
G01X11557Y17717D01*
G01X11557Y17244D01*
G01X11043Y17244D01*
G37*
G36*
G01X11043Y16614D02*
G01X11043Y17087D01*
G01X11557Y17087D01*
G01X11557Y16614D01*
G01X11043Y16614D01*
G37*
G36*
G01X1460Y16325D02*
G01X1460Y17005D01*
G01X2140Y17005D01*
G01X2140Y16325D01*
G01X1460Y16325D01*
G37*
G54D47*
G01X1800Y17665D03*
G01X1800Y18665D03*
G54D48*
G01X1382Y20665D03*
G36*
G01X13063Y11976D02*
G01X13063Y12450D01*
G01X13577Y12450D01*
G01X13577Y11976D01*
G01X13063Y11976D01*
G37*
G36*
G01X13063Y12685D02*
G01X13063Y13158D01*
G01X13577Y13158D01*
G01X13577Y12685D01*
G01X13063Y12685D01*
G37*
G36*
G01X15343Y5596D02*
G01X15343Y6070D01*
G01X15857Y6070D01*
G01X15857Y5596D01*
G01X15343Y5596D01*
G37*
G36*
G01X15343Y6305D02*
G01X15343Y6778D01*
G01X15857Y6778D01*
G01X15857Y6305D01*
G01X15343Y6305D01*
G37*
G36*
G01X10898Y5020D02*
G01X10898Y5534D01*
G01X11372Y5534D01*
G01X11372Y5020D01*
G01X10898Y5020D01*
G37*
G36*
G01X11528Y5020D02*
G01X11528Y5534D01*
G01X12002Y5534D01*
G01X12002Y5020D01*
G01X11528Y5020D01*
G37*
G36*
G01X11528Y5680D02*
G01X11528Y6194D01*
G01X12002Y6194D01*
G01X12002Y5680D01*
G01X11528Y5680D01*
G37*
G36*
G01X10898Y5680D02*
G01X10898Y6194D01*
G01X11372Y6194D01*
G01X11372Y5680D01*
G01X10898Y5680D01*
G37*
G36*
G01X12108Y11120D02*
G01X12108Y11634D01*
G01X12582Y11634D01*
G01X12582Y11120D01*
G01X12108Y11120D01*
G37*
G36*
G01X11478Y11120D02*
G01X11478Y11634D01*
G01X11952Y11634D01*
G01X11952Y11120D01*
G01X11478Y11120D01*
G37*
G36*
G01X11477Y11790D02*
G01X11477Y12304D01*
G01X11951Y12304D01*
G01X11951Y11790D01*
G01X11477Y11790D01*
G37*
G36*
G01X12107Y11790D02*
G01X12107Y12304D01*
G01X12581Y12304D01*
G01X12581Y11790D01*
G01X12107Y11790D01*
G37*
G36*
G01X15457Y11749D02*
G01X15457Y12262D01*
G01X15931Y12262D01*
G01X15931Y11749D01*
G01X15457Y11749D01*
G37*
G36*
G01X14749Y11749D02*
G01X14749Y12262D01*
G01X15222Y12262D01*
G01X15222Y11749D01*
G01X14749Y11749D01*
G37*
G36*
G01X13063Y5896D02*
G01X13063Y6370D01*
G01X13577Y6370D01*
G01X13577Y5896D01*
G01X13063Y5896D01*
G37*
G36*
G01X13063Y6605D02*
G01X13063Y7078D01*
G01X13577Y7078D01*
G01X13577Y6605D01*
G01X13063Y6605D01*
G37*
G54D49*
G01X23878Y10760D03*
G01X23878Y22571D03*
G01X3800Y22571D03*
G01X3800Y10760D03*
G54D50*
G01X24217Y20665D03*
G01X1382Y1374D03*
G01X24217Y1374D03*
M00*
M02*
