G04 Layer: BottomSolderMaskLayer*
G04 EasyEDA v6.3.22, 2020-01-25T23:38:18+00:00*
G04 9703bbce67ff49f59cf1a8212616356f,50f9dc15ed21485093dd89aa00421481,09*
G04 Gerber Generator version 0.2*
G04 Scale: 100 percent, Rotated: No, Reflected: No *
G04 Dimensions in inches *
G04 leading zeros omitted , absolute positions ,2 integer and 4 decimal *
%FSLAX24Y24*%
%MOIN*%
G90*
G70D02*

%ADD38C,0.078866*%
%ADD39C,0.082000*%
%ADD41C,0.086740*%
%ADD45C,0.082803*%
%ADD47C,0.068000*%
%ADD48C,0.128000*%
%ADD49C,0.145790*%
%ADD50C,0.208000*%

%LPD*%
G54D38*
G01X4300Y19165D03*
G01X4300Y18165D03*
G01X4300Y17165D03*
G01X4300Y16165D03*
G01X4300Y15165D03*
G01X4300Y14165D03*
G01X3300Y14165D03*
G01X3300Y15165D03*
G01X3300Y16165D03*
G01X3300Y17165D03*
G01X3300Y18165D03*
G01X22300Y21165D03*
G01X22300Y20165D03*
G01X21300Y21165D03*
G01X21300Y20165D03*
G01X20300Y21165D03*
G01X20300Y20165D03*
G01X19300Y21165D03*
G01X19300Y20165D03*
G01X18300Y20165D03*
G01X17300Y21165D03*
G01X17300Y20165D03*
G01X16300Y21165D03*
G01X16300Y20165D03*
G01X15300Y21165D03*
G01X15300Y20165D03*
G01X14300Y21165D03*
G01X14300Y20165D03*
G01X13300Y21165D03*
G01X13300Y20165D03*
G01X12300Y21165D03*
G01X12300Y20165D03*
G01X11300Y21165D03*
G01X11300Y20165D03*
G01X10300Y21165D03*
G01X10300Y20165D03*
G01X9300Y21165D03*
G01X9300Y20165D03*
G01X8300Y21165D03*
G01X8300Y20165D03*
G01X7300Y21165D03*
G01X7300Y20165D03*
G01X6300Y21165D03*
G01X6300Y20165D03*
G01X5300Y21165D03*
G01X5300Y20165D03*
G01X4300Y21165D03*
G01X4300Y20165D03*
G01X3300Y21165D03*
G54D39*
G01X3300Y7665D03*
G01X4300Y7665D03*
G01X5300Y7665D03*
G01X6300Y7665D03*
G01X7300Y7665D03*
G01X8300Y7665D03*
G01X9300Y7665D03*
G01X10300Y7665D03*
G01X11300Y7665D03*
G01X12300Y7665D03*
G01X13300Y7665D03*
G01X14300Y7665D03*
G01X15300Y7665D03*
G01X16300Y7665D03*
G01X17300Y7665D03*
G01X18300Y7665D03*
G01X19300Y7665D03*
G01X20300Y7665D03*
G01X21300Y7665D03*
G01X22300Y7665D03*
G01X22300Y1565D03*
G01X21300Y1565D03*
G01X20300Y1565D03*
G01X19300Y1565D03*
G01X18300Y1565D03*
G01X17300Y1565D03*
G01X16300Y1565D03*
G01X15300Y1565D03*
G01X13300Y1565D03*
G01X12300Y1565D03*
G01X11300Y1565D03*
G01X10300Y1565D03*
G01X9300Y1565D03*
G01X8300Y1565D03*
G01X7300Y1565D03*
G01X6300Y1565D03*
G01X5300Y1565D03*
G01X4300Y1565D03*
G01X3300Y1565D03*
G01X14300Y1565D03*
G54D38*
G01X22300Y21165D03*
G01X22300Y20165D03*
G01X21300Y21165D03*
G01X21300Y20165D03*
G01X20300Y21165D03*
G01X20300Y20165D03*
G01X19300Y21165D03*
G01X19300Y20165D03*
G01X18300Y21165D03*
G01X18300Y20165D03*
G01X17300Y21165D03*
G01X17300Y20165D03*
G01X16300Y21165D03*
G01X16300Y20165D03*
G01X15300Y21165D03*
G01X15300Y20165D03*
G01X14300Y21165D03*
G01X14300Y20165D03*
G01X13300Y21165D03*
G01X13300Y20165D03*
G01X12300Y21165D03*
G01X12300Y20165D03*
G01X11300Y21165D03*
G01X11300Y20165D03*
G01X10300Y21165D03*
G01X10300Y20165D03*
G01X9300Y21165D03*
G01X9300Y20165D03*
G01X8300Y21165D03*
G01X8300Y20165D03*
G01X7300Y21165D03*
G01X7300Y20165D03*
G01X6300Y21165D03*
G01X6300Y20165D03*
G01X5300Y21165D03*
G01X5300Y20165D03*
G01X4300Y21165D03*
G01X4300Y20165D03*
G01X3300Y21165D03*
G01X4300Y19165D03*
G01X4300Y18165D03*
G01X4300Y17165D03*
G01X4300Y16165D03*
G01X4300Y15165D03*
G01X4300Y14165D03*
G01X3300Y14165D03*
G01X3300Y15165D03*
G01X3300Y16165D03*
G01X3300Y17165D03*
G01X3300Y18165D03*
G36*
G01X366Y13232D02*
G01X366Y14099D01*
G01X1234Y14099D01*
G01X1234Y13232D01*
G01X366Y13232D01*
G37*
G54D41*
G01X1800Y13665D03*
G36*
G01X366Y10232D02*
G01X366Y11099D01*
G01X1234Y11099D01*
G01X1234Y10232D01*
G01X366Y10232D01*
G37*
G01X1800Y10665D03*
G54D38*
G01X3300Y7665D03*
G01X4300Y7665D03*
G01X5300Y7665D03*
G01X6300Y7665D03*
G01X7300Y7665D03*
G01X8300Y7665D03*
G01X9300Y7665D03*
G01X10300Y7665D03*
G01X11300Y7665D03*
G01X12300Y7665D03*
G01X13300Y7665D03*
G01X14300Y7665D03*
G01X15300Y7665D03*
G01X16300Y7665D03*
G01X17300Y7665D03*
G01X18300Y7665D03*
G01X19300Y7665D03*
G01X20300Y7665D03*
G01X21300Y7665D03*
G01X22300Y7665D03*
G01X22300Y1562D03*
G01X21300Y1562D03*
G01X20300Y1562D03*
G01X19300Y1562D03*
G01X18300Y1562D03*
G01X17300Y1562D03*
G01X16300Y1562D03*
G01X15300Y1562D03*
G01X13300Y1562D03*
G01X12300Y1562D03*
G01X11300Y1562D03*
G01X10300Y1562D03*
G01X9300Y1562D03*
G01X8300Y1562D03*
G01X7300Y1562D03*
G01X6300Y1562D03*
G01X5300Y1562D03*
G01X4300Y1562D03*
G01X3300Y1562D03*
G01X14300Y1562D03*
G01X4300Y19165D03*
G01X4300Y18165D03*
G01X4300Y17165D03*
G01X4300Y16165D03*
G01X4300Y15165D03*
G01X4300Y14165D03*
G01X3300Y14165D03*
G01X3300Y15165D03*
G01X3300Y16165D03*
G01X3300Y17165D03*
G01X3300Y18165D03*
G01X3300Y19165D03*
G01X22300Y21165D03*
G01X22300Y20165D03*
G01X21300Y21165D03*
G01X21300Y20165D03*
G01X20300Y21165D03*
G01X20300Y20165D03*
G01X19300Y21165D03*
G01X19300Y20165D03*
G01X18300Y21165D03*
G01X18300Y20165D03*
G01X17300Y21165D03*
G01X17300Y20165D03*
G01X16300Y21165D03*
G01X16300Y20165D03*
G01X15300Y21165D03*
G01X15300Y20165D03*
G01X14300Y21165D03*
G01X14300Y20165D03*
G01X13300Y21165D03*
G01X13300Y20165D03*
G01X12300Y21165D03*
G01X12300Y20165D03*
G01X11300Y21165D03*
G01X11300Y20165D03*
G01X10300Y21165D03*
G01X10300Y20165D03*
G01X9300Y21165D03*
G01X9300Y20165D03*
G01X8300Y21165D03*
G01X8300Y20165D03*
G01X7300Y21165D03*
G01X7300Y20165D03*
G01X6300Y21165D03*
G01X6300Y20165D03*
G01X5300Y21165D03*
G01X5300Y20165D03*
G01X4300Y21165D03*
G01X4300Y20165D03*
G01X3300Y21165D03*
G01X3300Y20165D03*
G36*
G01X366Y13232D02*
G01X366Y14099D01*
G01X1234Y14099D01*
G01X1234Y13232D01*
G01X366Y13232D01*
G37*
G54D41*
G01X1800Y13665D03*
G36*
G01X366Y10232D02*
G01X366Y11099D01*
G01X1234Y11099D01*
G01X1234Y10232D01*
G01X366Y10232D01*
G37*
G01X1800Y10665D03*
G54D45*
G01X1295Y22669D03*
G36*
G01X1460Y16325D02*
G01X1460Y17005D01*
G01X2140Y17005D01*
G01X2140Y16325D01*
G01X1460Y16325D01*
G37*
G54D47*
G01X1800Y17665D03*
G01X1800Y18665D03*
G54D48*
G01X1382Y20665D03*
G54D49*
G01X23878Y10760D03*
G01X23878Y22571D03*
G01X3800Y22571D03*
G01X3800Y10760D03*
G54D50*
G01X24217Y20665D03*
G01X1382Y1374D03*
G01X24217Y1374D03*
M00*
M02*
