G04 Layer: TopSilkLayer*
G04 EasyEDA v6.3.22, 2020-01-25T23:38:18+00:00*
G04 9703bbce67ff49f59cf1a8212616356f,50f9dc15ed21485093dd89aa00421481,09*
G04 Gerber Generator version 0.2*
G04 Scale: 100 percent, Rotated: No, Reflected: No *
G04 Dimensions in inches *
G04 leading zeros omitted , absolute positions ,2 integer and 4 decimal *
%FSLAX24Y24*%
%MOIN*%
G90*
G70D02*

%ADD10C,0.010000*%
%ADD13C,0.006000*%
%ADD33C,0.011810*%
%ADD34C,0.005910*%

%LPD*%
G54D10*
G01X303Y14452D02*
G01X2296Y14452D01*
G01X2296Y14452D02*
G01X2296Y12760D01*
G01X303Y14452D02*
G01X303Y12760D01*
G01X303Y12760D02*
G01X2296Y12760D01*
G01X303Y11452D02*
G01X2296Y11452D01*
G01X2296Y11452D02*
G01X2296Y9760D01*
G01X303Y11452D02*
G01X303Y9760D01*
G01X303Y9760D02*
G01X2296Y9760D01*
G01X303Y14452D02*
G01X2296Y14452D01*
G01X2296Y14452D02*
G01X2296Y12760D01*
G01X303Y14452D02*
G01X303Y12760D01*
G01X303Y12760D02*
G01X2296Y12760D01*
G01X303Y11452D02*
G01X2296Y11452D01*
G01X2296Y11452D02*
G01X2296Y9760D01*
G01X303Y11452D02*
G01X303Y9760D01*
G01X303Y9760D02*
G01X2296Y9760D01*
G01X13350Y3227D02*
G01X13350Y3377D01*
G01X13500Y3227D02*
G01X13350Y3227D01*
G01X15269Y3227D02*
G01X15119Y3227D01*
G01X15269Y3377D02*
G01X15269Y3227D01*
G01X15269Y5147D02*
G01X15269Y4997D01*
G01X15119Y5147D02*
G01X15269Y5147D01*
G01X13350Y5147D02*
G01X13500Y5147D01*
G01X13350Y4997D02*
G01X13350Y5147D01*
G01X13340Y9217D02*
G01X13340Y9367D01*
G01X13490Y9217D02*
G01X13340Y9217D01*
G01X15260Y9217D02*
G01X15110Y9217D01*
G01X15260Y9367D02*
G01X15260Y9217D01*
G01X15260Y11137D02*
G01X15260Y10987D01*
G01X15110Y11137D02*
G01X15260Y11137D01*
G01X13340Y11137D02*
G01X13490Y11137D01*
G01X13340Y10987D02*
G01X13340Y11137D01*
G01X14449Y17401D02*
G01X14449Y16929D01*
G01X13642Y17480D02*
G01X13248Y17480D01*
G01X13642Y16850D02*
G01X13248Y16850D01*
G01X13957Y17480D02*
G01X14351Y17480D01*
G01X13957Y16850D02*
G01X14351Y16850D01*
G01X13150Y17401D02*
G01X13150Y16929D01*
G01X13229Y17480D02*
G01X13248Y17480D01*
G01X13229Y16850D02*
G01X13248Y16850D01*
G01X14370Y17480D02*
G01X14351Y17480D01*
G01X14370Y16850D02*
G01X14351Y16850D01*
G01X1995Y21715D02*
G01X2624Y21715D01*
G01X2622Y22443D02*
G01X2622Y22936D01*
G01X1993Y22443D02*
G01X1993Y22936D01*
G01X2624Y22207D02*
G01X2624Y21715D01*
G01X1995Y22207D02*
G01X1995Y21715D01*
G01X1993Y22936D02*
G01X2622Y22936D01*
G01X16215Y17984D02*
G01X16215Y17354D01*
G01X16943Y17356D02*
G01X17435Y17356D01*
G01X16943Y17986D02*
G01X17435Y17986D01*
G01X16707Y17354D02*
G01X16215Y17354D01*
G01X16707Y17984D02*
G01X16215Y17984D01*
G01X17435Y17986D02*
G01X17435Y17356D01*
G01X15880Y17432D02*
G01X15880Y18062D01*
G01X15151Y18060D02*
G01X14659Y18060D01*
G01X15151Y17430D02*
G01X14659Y17430D01*
G01X15388Y18062D02*
G01X15880Y18062D01*
G01X15388Y17432D02*
G01X15880Y17432D01*
G01X14659Y17430D02*
G01X14659Y18060D01*
G01X11250Y15640D02*
G01X11250Y16270D01*
G01X10521Y16268D02*
G01X10029Y16268D01*
G01X10521Y15638D02*
G01X10029Y15638D01*
G01X10758Y16270D02*
G01X11250Y16270D01*
G01X10758Y15640D02*
G01X11250Y15640D01*
G01X10029Y15638D02*
G01X10029Y16268D01*
G01X10985Y16555D02*
G01X11614Y16555D01*
G01X11612Y17283D02*
G01X11612Y17776D01*
G01X10983Y17283D02*
G01X10983Y17776D01*
G01X11614Y17047D02*
G01X11614Y16555D01*
G01X10985Y17047D02*
G01X10985Y16555D01*
G01X10983Y17776D02*
G01X11612Y17776D01*
G01X1300Y16165D02*
G01X1300Y17165D01*
G01X2300Y17165D01*
G01X2300Y16165D01*
G01X1300Y16165D01*
G01X1300Y17165D02*
G01X1300Y19165D01*
G01X2300Y19165D01*
G01X2300Y17165D01*
G01X13083Y13216D02*
G01X13556Y13216D01*
G01X13005Y12409D02*
G01X13005Y12016D01*
G01X13634Y12409D02*
G01X13634Y12016D01*
G01X13005Y12724D02*
G01X13005Y13118D01*
G01X13634Y12724D02*
G01X13634Y13118D01*
G01X13083Y11917D02*
G01X13556Y11917D01*
G01X13005Y11996D02*
G01X13005Y12016D01*
G01X13634Y11996D02*
G01X13634Y12016D01*
G01X13005Y13138D02*
G01X13005Y13118D01*
G01X13634Y13138D02*
G01X13634Y13118D01*
G01X15363Y6836D02*
G01X15836Y6836D01*
G01X15285Y6029D02*
G01X15285Y5636D01*
G01X15914Y6029D02*
G01X15914Y5636D01*
G01X15285Y6344D02*
G01X15285Y6738D01*
G01X15914Y6344D02*
G01X15914Y6738D01*
G01X15363Y5537D02*
G01X15836Y5537D01*
G01X15285Y5616D02*
G01X15285Y5636D01*
G01X15914Y5616D02*
G01X15914Y5636D01*
G01X15285Y6758D02*
G01X15285Y6738D01*
G01X15914Y6758D02*
G01X15914Y6738D01*
G01X12060Y4962D02*
G01X12060Y5592D01*
G01X11331Y5590D02*
G01X10839Y5590D01*
G01X11331Y4960D02*
G01X10839Y4960D01*
G01X11568Y5592D02*
G01X12060Y5592D01*
G01X11568Y4962D02*
G01X12060Y4962D01*
G01X10839Y4960D02*
G01X10839Y5590D01*
G01X10839Y6252D02*
G01X10839Y5622D01*
G01X11568Y5624D02*
G01X12060Y5624D01*
G01X11568Y6254D02*
G01X12060Y6254D01*
G01X11331Y5622D02*
G01X10839Y5622D01*
G01X11331Y6252D02*
G01X10839Y6252D01*
G01X12060Y6254D02*
G01X12060Y5624D01*
G01X11419Y11692D02*
G01X11419Y11062D01*
G01X12148Y11064D02*
G01X12640Y11064D01*
G01X12148Y11694D02*
G01X12640Y11694D01*
G01X11911Y11062D02*
G01X11419Y11062D01*
G01X11911Y11692D02*
G01X11419Y11692D01*
G01X12640Y11694D02*
G01X12640Y11064D01*
G01X12639Y11732D02*
G01X12639Y12362D01*
G01X11910Y12360D02*
G01X11418Y12360D01*
G01X11910Y11730D02*
G01X11418Y11730D01*
G01X12147Y12362D02*
G01X12639Y12362D01*
G01X12147Y11732D02*
G01X12639Y11732D01*
G01X11418Y11730D02*
G01X11418Y12360D01*
G01X14690Y11769D02*
G01X14690Y12241D01*
G01X15497Y11690D02*
G01X15891Y11690D01*
G01X15497Y12320D02*
G01X15891Y12320D01*
G01X15182Y11690D02*
G01X14788Y11690D01*
G01X15182Y12320D02*
G01X14788Y12320D01*
G01X15989Y11769D02*
G01X15989Y12241D01*
G01X15910Y11690D02*
G01X15891Y11690D01*
G01X15910Y12320D02*
G01X15891Y12320D01*
G01X14769Y11690D02*
G01X14788Y11690D01*
G01X14769Y12320D02*
G01X14788Y12320D01*
G01X13083Y7136D02*
G01X13556Y7136D01*
G01X13005Y6329D02*
G01X13005Y5936D01*
G01X13634Y6329D02*
G01X13634Y5936D01*
G01X13005Y6644D02*
G01X13005Y7038D01*
G01X13634Y6644D02*
G01X13634Y7038D01*
G01X13083Y5837D02*
G01X13556Y5837D01*
G01X13005Y5916D02*
G01X13005Y5936D01*
G01X13634Y5916D02*
G01X13634Y5936D01*
G01X13005Y7058D02*
G01X13005Y7038D01*
G01X13634Y7058D02*
G01X13634Y7038D01*
G01X14545Y14518D02*
G01X14602Y14518D01*
G01X14957Y14518D02*
G01X15102Y14518D01*
G01X14545Y16092D02*
G01X14602Y16092D01*
G01X14957Y16092D02*
G01X15102Y16092D01*
G01X15457Y16092D02*
G01X15602Y16092D01*
G01X15957Y16092D02*
G01X16102Y16092D01*
G01X14545Y15077D02*
G01X14545Y14518D01*
G01X15457Y14518D02*
G01X15602Y14518D01*
G01X15957Y14518D02*
G01X16102Y14518D01*
G01X16457Y14518D02*
G01X16514Y14518D01*
G01X14545Y16092D02*
G01X14545Y15541D01*
G01X16514Y16092D02*
G01X16514Y14518D01*
G01X16457Y16092D02*
G01X16514Y16092D01*
G54D33*
G01X9258Y22760D02*
G01X9258Y22187D01*
G01X9222Y22080D01*
G01X9186Y22044D01*
G01X9114Y22008D01*
G01X9043Y22008D01*
G01X8971Y22044D01*
G01X8935Y22080D01*
G01X8900Y22187D01*
G01X8900Y22258D01*
G01X9494Y22760D02*
G01X9494Y22008D01*
G01X9494Y22008D02*
G01X9923Y22008D01*
G01X10696Y22581D02*
G01X10661Y22652D01*
G01X10589Y22724D01*
G01X10517Y22760D01*
G01X10374Y22760D01*
G01X10303Y22724D01*
G01X10231Y22652D01*
G01X10195Y22581D01*
G01X10160Y22473D01*
G01X10160Y22294D01*
G01X10195Y22187D01*
G01X10231Y22115D01*
G01X10303Y22044D01*
G01X10374Y22008D01*
G01X10517Y22008D01*
G01X10589Y22044D01*
G01X10661Y22115D01*
G01X10696Y22187D01*
G01X11291Y22760D02*
G01X11291Y22187D01*
G01X11255Y22080D01*
G01X11219Y22044D01*
G01X11147Y22008D01*
G01X11076Y22008D01*
G01X11004Y22044D01*
G01X10968Y22080D01*
G01X10933Y22187D01*
G01X10933Y22258D01*
G01X11527Y22760D02*
G01X11527Y22008D01*
G01X11527Y22008D02*
G01X11956Y22008D01*
G01X12729Y22581D02*
G01X12694Y22652D01*
G01X12622Y22724D01*
G01X12550Y22760D01*
G01X12407Y22760D01*
G01X12336Y22724D01*
G01X12264Y22652D01*
G01X12228Y22581D01*
G01X12192Y22473D01*
G01X12192Y22294D01*
G01X12228Y22187D01*
G01X12264Y22115D01*
G01X12336Y22044D01*
G01X12407Y22008D01*
G01X12550Y22008D01*
G01X12622Y22044D01*
G01X12694Y22115D01*
G01X12729Y22187D01*
G01X13323Y22760D02*
G01X13323Y22187D01*
G01X13288Y22080D01*
G01X13252Y22044D01*
G01X13180Y22008D01*
G01X13109Y22008D01*
G01X13037Y22044D01*
G01X13001Y22080D01*
G01X12966Y22187D01*
G01X12966Y22258D01*
G01X13560Y22760D02*
G01X13560Y22008D01*
G01X13560Y22008D02*
G01X13989Y22008D01*
G01X14762Y22581D02*
G01X14726Y22652D01*
G01X14655Y22724D01*
G01X14583Y22760D01*
G01X14440Y22760D01*
G01X14369Y22724D01*
G01X14297Y22652D01*
G01X14261Y22581D01*
G01X14225Y22473D01*
G01X14225Y22294D01*
G01X14261Y22187D01*
G01X14297Y22115D01*
G01X14369Y22044D01*
G01X14440Y22008D01*
G01X14583Y22008D01*
G01X14655Y22044D01*
G01X14726Y22115D01*
G01X14762Y22187D01*
G01X15356Y22760D02*
G01X15356Y22187D01*
G01X15321Y22080D01*
G01X15285Y22044D01*
G01X15213Y22008D01*
G01X15142Y22008D01*
G01X15070Y22044D01*
G01X15034Y22080D01*
G01X14998Y22187D01*
G01X14998Y22258D01*
G01X15593Y22760D02*
G01X15593Y22008D01*
G01X15593Y22008D02*
G01X16022Y22008D01*
G01X16795Y22581D02*
G01X16759Y22652D01*
G01X16688Y22724D01*
G01X16616Y22760D01*
G01X16473Y22760D01*
G01X16401Y22724D01*
G01X16330Y22652D01*
G01X16294Y22581D01*
G01X16258Y22473D01*
G01X16258Y22294D01*
G01X16294Y22187D01*
G01X16330Y22115D01*
G01X16401Y22044D01*
G01X16473Y22008D01*
G01X16616Y22008D01*
G01X16688Y22044D01*
G01X16759Y22115D01*
G01X16795Y22187D01*
G01X989Y12131D02*
G01X961Y12184D01*
G01X909Y12238D01*
G01X855Y12265D01*
G01X748Y12265D01*
G01X694Y12238D01*
G01X640Y12184D01*
G01X613Y12131D01*
G01X587Y12050D01*
G01X587Y11916D01*
G01X613Y11836D01*
G01X640Y11782D01*
G01X694Y11728D01*
G01X748Y11701D01*
G01X855Y11701D01*
G01X909Y11728D01*
G01X961Y11782D01*
G01X989Y11836D01*
G01X989Y11916D01*
G01X855Y11916D02*
G01X989Y11916D01*
G01X1166Y12265D02*
G01X1166Y11701D01*
G01X1166Y12265D02*
G01X1542Y11701D01*
G01X1542Y12265D02*
G01X1542Y11701D01*
G01X1719Y12265D02*
G01X1719Y11701D01*
G01X1719Y12265D02*
G01X1907Y12265D01*
G01X1988Y12238D01*
G01X2041Y12184D01*
G01X2068Y12131D01*
G01X2095Y12050D01*
G01X2095Y11916D01*
G01X2068Y11836D01*
G01X2041Y11782D01*
G01X1988Y11728D01*
G01X1907Y11701D01*
G01X1719Y11701D01*
G01X500Y15161D02*
G01X714Y14597D01*
G01X929Y15161D02*
G01X714Y14597D01*
G01X1509Y15027D02*
G01X1482Y15080D01*
G01X1428Y15134D01*
G01X1375Y15161D01*
G01X1267Y15161D01*
G01X1214Y15134D01*
G01X1160Y15080D01*
G01X1133Y15027D01*
G01X1106Y14946D01*
G01X1106Y14812D01*
G01X1133Y14732D01*
G01X1160Y14678D01*
G01X1214Y14624D01*
G01X1267Y14597D01*
G01X1375Y14597D01*
G01X1428Y14624D01*
G01X1482Y14678D01*
G01X1509Y14732D01*
G01X2089Y15027D02*
G01X2062Y15080D01*
G01X2008Y15134D01*
G01X1954Y15161D01*
G01X1847Y15161D01*
G01X1793Y15134D01*
G01X1740Y15080D01*
G01X1713Y15027D01*
G01X1686Y14946D01*
G01X1686Y14812D01*
G01X1713Y14732D01*
G01X1740Y14678D01*
G01X1793Y14624D01*
G01X1847Y14597D01*
G01X1954Y14597D01*
G01X2008Y14624D01*
G01X2062Y14678D01*
G01X2089Y14732D01*
G01X504Y15919D02*
G01X504Y16214D01*
G01X718Y16053D01*
G01X718Y16134D01*
G01X745Y16187D01*
G01X772Y16214D01*
G01X853Y16241D01*
G01X906Y16241D01*
G01X987Y16214D01*
G01X1041Y16161D01*
G01X1067Y16080D01*
G01X1067Y16000D01*
G01X1041Y15919D01*
G01X1014Y15892D01*
G01X960Y15865D01*
G01X504Y16418D02*
G01X1067Y16633D01*
G01X504Y16848D02*
G01X1067Y16633D01*
G01X504Y17079D02*
G01X504Y17374D01*
G01X718Y17213D01*
G01X718Y17293D01*
G01X745Y17347D01*
G01X772Y17374D01*
G01X853Y17401D01*
G01X906Y17401D01*
G01X987Y17374D01*
G01X1041Y17320D01*
G01X1067Y17240D01*
G01X1067Y17159D01*
G01X1041Y17079D01*
G01X1014Y17052D01*
G01X960Y17025D01*
G01X504Y18587D02*
G01X504Y18319D01*
G01X745Y18292D01*
G01X718Y18319D01*
G01X691Y18400D01*
G01X691Y18480D01*
G01X718Y18561D01*
G01X772Y18614D01*
G01X852Y18641D01*
G01X906Y18641D01*
G01X987Y18614D01*
G01X1040Y18561D01*
G01X1067Y18480D01*
G01X1067Y18400D01*
G01X1040Y18319D01*
G01X1014Y18292D01*
G01X960Y18265D01*
G01X504Y18818D02*
G01X1067Y19033D01*
G01X504Y19248D02*
G01X1067Y19033D01*
G54D13*
G01X505Y22100D02*
G01X491Y22127D01*
G01X463Y22154D01*
G01X436Y22168D01*
G01X382Y22168D01*
G01X355Y22154D01*
G01X327Y22127D01*
G01X314Y22100D01*
G01X300Y22059D01*
G01X300Y21990D01*
G01X314Y21950D01*
G01X327Y21922D01*
G01X355Y21895D01*
G01X382Y21881D01*
G01X436Y21881D01*
G01X463Y21895D01*
G01X491Y21922D01*
G01X505Y21950D01*
G01X505Y21990D01*
G01X436Y21990D02*
G01X505Y21990D01*
G01X595Y22168D02*
G01X595Y21881D01*
G01X595Y22168D02*
G01X785Y21881D01*
G01X785Y22168D02*
G01X785Y21881D01*
G01X875Y22168D02*
G01X875Y21881D01*
G01X875Y22168D02*
G01X971Y22168D01*
G01X1011Y22154D01*
G01X1039Y22127D01*
G01X1053Y22100D01*
G01X1066Y22059D01*
G01X1066Y21990D01*
G01X1053Y21950D01*
G01X1039Y21922D01*
G01X1011Y21895D01*
G01X971Y21881D01*
G01X875Y21881D01*
G01X341Y21768D02*
G01X341Y21536D01*
G01X355Y21495D01*
G01X382Y21481D01*
G01X409Y21481D01*
G01X300Y21672D02*
G01X395Y21672D01*
G01X567Y21672D02*
G01X540Y21659D01*
G01X513Y21631D01*
G01X499Y21590D01*
G01X499Y21563D01*
G01X513Y21522D01*
G01X540Y21495D01*
G01X567Y21481D01*
G01X608Y21481D01*
G01X635Y21495D01*
G01X663Y21522D01*
G01X676Y21563D01*
G01X676Y21590D01*
G01X663Y21631D01*
G01X635Y21659D01*
G01X608Y21672D01*
G01X567Y21672D01*
G01X976Y21672D02*
G01X1031Y21481D01*
G01X1085Y21672D02*
G01X1031Y21481D01*
G01X1085Y21672D02*
G01X1140Y21481D01*
G01X1195Y21672D02*
G01X1140Y21481D01*
G01X1285Y21672D02*
G01X1285Y21481D01*
G01X1285Y21590D02*
G01X1298Y21631D01*
G01X1325Y21659D01*
G01X1353Y21672D01*
G01X1394Y21672D01*
G01X1484Y21768D02*
G01X1497Y21754D01*
G01X1511Y21768D01*
G01X1497Y21781D01*
G01X1484Y21768D01*
G01X1497Y21672D02*
G01X1497Y21481D01*
G01X1642Y21768D02*
G01X1642Y21536D01*
G01X1655Y21495D01*
G01X1682Y21481D01*
G01X1710Y21481D01*
G01X1601Y21672D02*
G01X1696Y21672D01*
G01X1800Y21590D02*
G01X1964Y21590D01*
G01X1964Y21618D01*
G01X1950Y21645D01*
G01X1936Y21659D01*
G01X1909Y21672D01*
G01X1868Y21672D01*
G01X1841Y21659D01*
G01X1814Y21631D01*
G01X1800Y21590D01*
G01X1800Y21563D01*
G01X1814Y21522D01*
G01X1841Y21495D01*
G01X1868Y21481D01*
G01X1909Y21481D01*
G01X1936Y21495D01*
G01X1964Y21522D01*
G01X1505Y14919D02*
G01X1505Y14592D01*
G01X1484Y14530D01*
G01X1464Y14510D01*
G01X1423Y14490D01*
G01X1382Y14490D01*
G01X1341Y14510D01*
G01X1320Y14530D01*
G01X1300Y14592D01*
G01X1300Y14633D01*
G01X1639Y14837D02*
G01X1680Y14858D01*
G01X1742Y14919D01*
G01X1742Y14490D01*
G01X1505Y11919D02*
G01X1505Y11592D01*
G01X1484Y11530D01*
G01X1464Y11510D01*
G01X1423Y11490D01*
G01X1382Y11490D01*
G01X1341Y11510D01*
G01X1320Y11530D01*
G01X1300Y11592D01*
G01X1300Y11633D01*
G01X1660Y11817D02*
G01X1660Y11837D01*
G01X1680Y11878D01*
G01X1701Y11899D01*
G01X1742Y11919D01*
G01X1823Y11919D01*
G01X1864Y11899D01*
G01X1885Y11878D01*
G01X1905Y11837D01*
G01X1905Y11796D01*
G01X1885Y11755D01*
G01X1844Y11694D01*
G01X1639Y11490D01*
G01X1926Y11490D01*
G01X13988Y5951D02*
G01X13988Y5644D01*
G01X14009Y5583D01*
G01X14050Y5542D01*
G01X14111Y5522D01*
G01X14152Y5522D01*
G01X14213Y5542D01*
G01X14254Y5583D01*
G01X14275Y5644D01*
G01X14275Y5951D01*
G01X14451Y5951D02*
G01X14676Y5951D01*
G01X14553Y5787D01*
G01X14613Y5787D01*
G01X14655Y5767D01*
G01X14676Y5747D01*
G01X14696Y5685D01*
G01X14696Y5644D01*
G01X14676Y5583D01*
G01X14635Y5542D01*
G01X14572Y5522D01*
G01X14512Y5522D01*
G01X14451Y5542D01*
G01X14430Y5562D01*
G01X14410Y5603D01*
G01X13830Y11909D02*
G01X13830Y11603D01*
G01X13850Y11541D01*
G01X13891Y11500D01*
G01X13953Y11480D01*
G01X13994Y11480D01*
G01X14055Y11500D01*
G01X14096Y11541D01*
G01X14116Y11603D01*
G01X14116Y11909D01*
G01X14272Y11807D02*
G01X14272Y11828D01*
G01X14291Y11869D01*
G01X14313Y11889D01*
G01X14354Y11909D01*
G01X14435Y11909D01*
G01X14476Y11889D01*
G01X14497Y11869D01*
G01X14516Y11828D01*
G01X14516Y11787D01*
G01X14497Y11746D01*
G01X14456Y11684D01*
G01X14251Y11480D01*
G01X14538Y11480D01*
G54D34*
G01X13668Y17973D02*
G01X13650Y18009D01*
G01X13614Y18044D01*
G01X13578Y18062D01*
G01X13507Y18062D01*
G01X13471Y18044D01*
G01X13435Y18009D01*
G01X13417Y17973D01*
G01X13399Y17919D01*
G01X13399Y17830D01*
G01X13417Y17776D01*
G01X13435Y17740D01*
G01X13471Y17704D01*
G01X13507Y17687D01*
G01X13578Y17687D01*
G01X13614Y17704D01*
G01X13650Y17740D01*
G01X13668Y17776D01*
G01X13786Y17991D02*
G01X13822Y18009D01*
G01X13875Y18062D01*
G01X13875Y17687D01*
G01X1999Y23440D02*
G01X1999Y23065D01*
G01X1999Y23440D02*
G01X2160Y23440D01*
G01X2214Y23422D01*
G01X2232Y23405D01*
G01X2250Y23369D01*
G01X2250Y23333D01*
G01X2232Y23297D01*
G01X2214Y23279D01*
G01X2160Y23261D01*
G01X1999Y23261D01*
G01X2125Y23261D02*
G01X2250Y23065D01*
G01X2547Y23440D02*
G01X2368Y23190D01*
G01X2636Y23190D01*
G01X2547Y23440D02*
G01X2547Y23065D01*
G01X16599Y18662D02*
G01X16599Y18287D01*
G01X16599Y18662D02*
G01X16760Y18662D01*
G01X16814Y18644D01*
G01X16832Y18627D01*
G01X16850Y18591D01*
G01X16850Y18555D01*
G01X16832Y18519D01*
G01X16814Y18501D01*
G01X16760Y18483D01*
G01X16599Y18483D01*
G01X16725Y18483D02*
G01X16850Y18287D01*
G01X17004Y18662D02*
G01X17201Y18662D01*
G01X17093Y18519D01*
G01X17147Y18519D01*
G01X17183Y18501D01*
G01X17201Y18483D01*
G01X17218Y18430D01*
G01X17218Y18394D01*
G01X17201Y18340D01*
G01X17165Y18304D01*
G01X17111Y18287D01*
G01X17057Y18287D01*
G01X17004Y18304D01*
G01X16986Y18322D01*
G01X16968Y18358D01*
G01X14899Y18562D02*
G01X14899Y18187D01*
G01X14899Y18562D02*
G01X15060Y18562D01*
G01X15114Y18544D01*
G01X15132Y18527D01*
G01X15150Y18491D01*
G01X15150Y18455D01*
G01X15132Y18419D01*
G01X15114Y18401D01*
G01X15060Y18383D01*
G01X14899Y18383D01*
G01X15025Y18383D02*
G01X15150Y18187D01*
G01X15483Y18562D02*
G01X15304Y18562D01*
G01X15286Y18401D01*
G01X15304Y18419D01*
G01X15357Y18437D01*
G01X15411Y18437D01*
G01X15465Y18419D01*
G01X15501Y18383D01*
G01X15518Y18330D01*
G01X15518Y18294D01*
G01X15501Y18240D01*
G01X15465Y18204D01*
G01X15411Y18187D01*
G01X15357Y18187D01*
G01X15304Y18204D01*
G01X15286Y18222D01*
G01X15268Y18258D01*
G01X10530Y15450D02*
G01X10530Y15074D01*
G01X10530Y15450D02*
G01X10691Y15450D01*
G01X10745Y15432D01*
G01X10763Y15414D01*
G01X10781Y15379D01*
G01X10781Y15343D01*
G01X10763Y15307D01*
G01X10745Y15289D01*
G01X10691Y15271D01*
G01X10530Y15271D01*
G01X10655Y15271D02*
G01X10781Y15074D01*
G01X10899Y15379D02*
G01X10934Y15397D01*
G01X10988Y15450D01*
G01X10988Y15074D01*
G01X11803Y16865D02*
G01X12179Y16865D01*
G01X11803Y16865D02*
G01X11803Y17026D01*
G01X11821Y17080D01*
G01X11839Y17098D01*
G01X11874Y17116D01*
G01X11910Y17116D01*
G01X11946Y17098D01*
G01X11964Y17080D01*
G01X11982Y17026D01*
G01X11982Y16865D01*
G01X11982Y16990D02*
G01X12179Y17116D01*
G01X11892Y17252D02*
G01X11874Y17252D01*
G01X11839Y17269D01*
G01X11821Y17287D01*
G01X11803Y17323D01*
G01X11803Y17395D01*
G01X11821Y17430D01*
G01X11839Y17448D01*
G01X11874Y17466D01*
G01X11910Y17466D01*
G01X11946Y17448D01*
G01X12000Y17413D01*
G01X12179Y17234D01*
G01X12179Y17484D01*
G01X13841Y12713D02*
G01X13806Y12696D01*
G01X13771Y12660D01*
G01X13753Y12624D01*
G01X13753Y12552D01*
G01X13771Y12517D01*
G01X13806Y12481D01*
G01X13841Y12463D01*
G01X13896Y12445D01*
G01X13985Y12445D01*
G01X14038Y12463D01*
G01X14075Y12481D01*
G01X14111Y12517D01*
G01X14129Y12552D01*
G01X14129Y12624D01*
G01X14111Y12660D01*
G01X14075Y12696D01*
G01X14038Y12713D01*
G01X13753Y13010D02*
G01X14003Y12832D01*
G01X14003Y13100D01*
G01X13753Y13010D02*
G01X14129Y13010D01*
G01X16192Y6534D02*
G01X16156Y6516D01*
G01X16121Y6480D01*
G01X16103Y6444D01*
G01X16103Y6373D01*
G01X16121Y6337D01*
G01X16156Y6301D01*
G01X16192Y6283D01*
G01X16246Y6265D01*
G01X16335Y6265D01*
G01X16389Y6283D01*
G01X16425Y6301D01*
G01X16461Y6337D01*
G01X16478Y6373D01*
G01X16478Y6444D01*
G01X16461Y6480D01*
G01X16425Y6516D01*
G01X16389Y6534D01*
G01X16103Y6866D02*
G01X16103Y6688D01*
G01X16264Y6670D01*
G01X16246Y6688D01*
G01X16228Y6741D01*
G01X16228Y6795D01*
G01X16246Y6849D01*
G01X16282Y6884D01*
G01X16335Y6902D01*
G01X16371Y6902D01*
G01X16425Y6884D01*
G01X16461Y6849D01*
G01X16478Y6795D01*
G01X16478Y6741D01*
G01X16461Y6688D01*
G01X16443Y6670D01*
G01X16407Y6652D01*
G01X11100Y4862D02*
G01X11100Y4486D01*
G01X11100Y4862D02*
G01X11261Y4862D01*
G01X11315Y4844D01*
G01X11333Y4826D01*
G01X11351Y4791D01*
G01X11351Y4755D01*
G01X11333Y4719D01*
G01X11315Y4701D01*
G01X11261Y4683D01*
G01X11100Y4683D01*
G01X11225Y4683D02*
G01X11351Y4486D01*
G01X11558Y4862D02*
G01X11504Y4844D01*
G01X11487Y4809D01*
G01X11487Y4773D01*
G01X11504Y4737D01*
G01X11540Y4719D01*
G01X11612Y4701D01*
G01X11665Y4683D01*
G01X11701Y4648D01*
G01X11719Y4612D01*
G01X11719Y4558D01*
G01X11701Y4522D01*
G01X11683Y4504D01*
G01X11630Y4486D01*
G01X11558Y4486D01*
G01X11504Y4504D01*
G01X11487Y4522D01*
G01X11469Y4558D01*
G01X11469Y4612D01*
G01X11487Y4648D01*
G01X11522Y4683D01*
G01X11576Y4701D01*
G01X11648Y4719D01*
G01X11683Y4737D01*
G01X11701Y4773D01*
G01X11701Y4809D01*
G01X11683Y4844D01*
G01X11630Y4862D01*
G01X11558Y4862D01*
G01X11200Y6762D02*
G01X11200Y6386D01*
G01X11200Y6762D02*
G01X11361Y6762D01*
G01X11415Y6744D01*
G01X11433Y6726D01*
G01X11451Y6691D01*
G01X11451Y6655D01*
G01X11433Y6619D01*
G01X11415Y6601D01*
G01X11361Y6583D01*
G01X11200Y6583D01*
G01X11325Y6583D02*
G01X11451Y6386D01*
G01X11801Y6637D02*
G01X11783Y6583D01*
G01X11748Y6548D01*
G01X11694Y6530D01*
G01X11676Y6530D01*
G01X11622Y6548D01*
G01X11587Y6583D01*
G01X11569Y6637D01*
G01X11569Y6655D01*
G01X11587Y6709D01*
G01X11622Y6744D01*
G01X11676Y6762D01*
G01X11694Y6762D01*
G01X11748Y6744D01*
G01X11783Y6709D01*
G01X11801Y6637D01*
G01X11801Y6548D01*
G01X11783Y6458D01*
G01X11748Y6404D01*
G01X11694Y6386D01*
G01X11658Y6386D01*
G01X11604Y6404D01*
G01X11587Y6440D01*
G01X11600Y10962D02*
G01X11600Y10586D01*
G01X11600Y10962D02*
G01X11761Y10962D01*
G01X11815Y10944D01*
G01X11833Y10926D01*
G01X11851Y10891D01*
G01X11851Y10855D01*
G01X11833Y10819D01*
G01X11815Y10801D01*
G01X11761Y10783D01*
G01X11600Y10783D01*
G01X11725Y10783D02*
G01X11851Y10586D01*
G01X12183Y10909D02*
G01X12165Y10944D01*
G01X12112Y10962D01*
G01X12076Y10962D01*
G01X12022Y10944D01*
G01X11987Y10891D01*
G01X11969Y10801D01*
G01X11969Y10712D01*
G01X11987Y10640D01*
G01X12022Y10604D01*
G01X12076Y10586D01*
G01X12094Y10586D01*
G01X12148Y10604D01*
G01X12183Y10640D01*
G01X12201Y10694D01*
G01X12201Y10712D01*
G01X12183Y10765D01*
G01X12148Y10801D01*
G01X12094Y10819D01*
G01X12076Y10819D01*
G01X12022Y10801D01*
G01X11987Y10765D01*
G01X11969Y10712D01*
G01X11800Y12862D02*
G01X11800Y12486D01*
G01X11800Y12862D02*
G01X11961Y12862D01*
G01X12015Y12844D01*
G01X12033Y12826D01*
G01X12051Y12791D01*
G01X12051Y12755D01*
G01X12033Y12719D01*
G01X12015Y12701D01*
G01X11961Y12683D01*
G01X11800Y12683D01*
G01X11925Y12683D02*
G01X12051Y12486D01*
G01X12419Y12862D02*
G01X12240Y12486D01*
G01X12169Y12862D02*
G01X12419Y12862D01*
G01X15308Y12721D02*
G01X15291Y12757D01*
G01X15255Y12792D01*
G01X15219Y12810D01*
G01X15147Y12810D01*
G01X15112Y12792D01*
G01X15076Y12757D01*
G01X15058Y12721D01*
G01X15040Y12667D01*
G01X15040Y12578D01*
G01X15058Y12524D01*
G01X15076Y12488D01*
G01X15112Y12452D01*
G01X15147Y12434D01*
G01X15219Y12434D01*
G01X15255Y12452D01*
G01X15291Y12488D01*
G01X15308Y12524D01*
G01X15444Y12721D02*
G01X15444Y12739D01*
G01X15462Y12774D01*
G01X15480Y12792D01*
G01X15516Y12810D01*
G01X15588Y12810D01*
G01X15622Y12792D01*
G01X15641Y12774D01*
G01X15659Y12739D01*
G01X15659Y12703D01*
G01X15641Y12667D01*
G01X15605Y12613D01*
G01X15427Y12434D01*
G01X15677Y12434D01*
G01X12592Y6033D02*
G01X12556Y6016D01*
G01X12521Y5980D01*
G01X12503Y5944D01*
G01X12503Y5872D01*
G01X12521Y5837D01*
G01X12556Y5801D01*
G01X12592Y5783D01*
G01X12646Y5765D01*
G01X12735Y5765D01*
G01X12789Y5783D01*
G01X12825Y5801D01*
G01X12861Y5837D01*
G01X12879Y5872D01*
G01X12879Y5944D01*
G01X12861Y5980D01*
G01X12825Y6016D01*
G01X12789Y6033D01*
G01X12503Y6187D02*
G01X12503Y6384D01*
G01X12646Y6277D01*
G01X12646Y6330D01*
G01X12664Y6366D01*
G01X12682Y6384D01*
G01X12735Y6402D01*
G01X12771Y6402D01*
G01X12825Y6384D01*
G01X12861Y6348D01*
G01X12879Y6295D01*
G01X12879Y6241D01*
G01X12861Y6187D01*
G01X12843Y6169D01*
G01X12807Y6152D01*
G54D13*
G01X13886Y14945D02*
G01X14192Y14945D01*
G01X14254Y14965D01*
G01X14295Y15006D01*
G01X14315Y15068D01*
G01X14315Y15109D01*
G01X14295Y15170D01*
G01X14254Y15211D01*
G01X14192Y15231D01*
G01X13886Y15231D01*
G01X13967Y15366D02*
G01X13947Y15407D01*
G01X13886Y15469D01*
G01X14315Y15469D01*
G54D10*
G75*
G01X13150Y17402D02*
G02X13229Y17481I79J0D01*
G01*
G75*
G01X13150Y16929D02*
G03X13229Y16851I79J0D01*
G01*
G75*
G01X14450Y17402D02*
G03X14371Y17481I-79J0D01*
G01*
G75*
G01X14450Y16929D02*
G02X14371Y16851I-79J0D01*
G01*
G75*
G01X13084Y11918D02*
G02X13005Y11996I0J78D01*
G01*
G75*
G01X13556Y11918D02*
G03X13635Y11996I0J78D01*
G01*
G75*
G01X13084Y13217D02*
G03X13005Y13138I0J-79D01*
G01*
G75*
G01X13556Y13217D02*
G02X13635Y13138I0J-79D01*
G01*
G75*
G01X15364Y5538D02*
G02X15285Y5616I0J78D01*
G01*
G75*
G01X15836Y5538D02*
G03X15915Y5616I0J78D01*
G01*
G75*
G01X15364Y6837D02*
G03X15285Y6758I0J-79D01*
G01*
G75*
G01X15836Y6837D02*
G02X15915Y6758I0J-79D01*
G01*
G75*
G01X15990Y11769D02*
G02X15911Y11691I-79J0D01*
G01*
G75*
G01X15990Y12242D02*
G03X15911Y12321I-79J0D01*
G01*
G75*
G01X14690Y11769D02*
G03X14769Y11691I79J0D01*
G01*
G75*
G01X14690Y12242D02*
G02X14769Y12321I79J0D01*
G01*
G75*
G01X13084Y5838D02*
G02X13005Y5916I0J78D01*
G01*
G75*
G01X13556Y5838D02*
G03X13635Y5916I0J78D01*
G01*
G75*
G01X13084Y7137D02*
G03X13005Y7058I0J-79D01*
G01*
G75*
G01X13556Y7137D02*
G02X13635Y7058I0J-79D01*
G01*
G75*
G01X14550Y15542D02*
G02X14550Y15077I17J-232D01*
G01*
G75*
G01X13170Y5107D02*
G03X13170Y5107I-30J0D01*
G01*
G75*
G01X13160Y11097D02*
G03X13160Y11097I-30J0D01*
G01*
G75*
G01X1795Y22669D02*
G03X1795Y22669I-500J0D01*
G01*
G75*
G01X14555Y14256D02*
G03X14555Y14256I-75J0D01*
G01*
M00*
M02*
