G04 Layer: TopLayer*
G04 EasyEDA v6.3.22, 2020-01-25T23:38:18+00:00*
G04 9703bbce67ff49f59cf1a8212616356f,50f9dc15ed21485093dd89aa00421481,09*
G04 Gerber Generator version 0.2*
G04 Scale: 100 percent, Rotated: No, Reflected: No *
G04 Dimensions in inches *
G04 leading zeros omitted , absolute positions ,2 integer and 4 decimal *
%FSLAX24Y24*%
%MOIN*%
G90*
G70D02*

%ADD10C,0.010000*%
%ADD11C,0.050000*%
%ADD12C,0.020000*%
%ADD13C,0.006000*%
%ADD14C,0.011024*%
%ADD15C,0.023622*%
%ADD16C,0.024000*%
%ADD17C,0.025000*%
%ADD18R,0.126000X0.126000*%
%ADD19R,0.026000X0.011800*%
%ADD20R,0.011800X0.026000*%
%ADD21R,0.039370X0.043307*%
%ADD22R,0.043307X0.039370*%
%ADD23C,0.070866*%
%ADD24C,0.074000*%
%ADD25R,0.078740X0.078740*%
%ADD26C,0.078740*%
%ADD27C,0.074803*%
%ADD28R,0.060000X0.060000*%
%ADD29C,0.060000*%
%ADD30C,0.120000*%
%ADD31C,0.137790*%
%ADD32C,0.200000*%

%LPD*%
G54D11*
G01X11880Y13485D02*
G01X4984Y13485D01*
G01X4014Y12515D01*
G01X2610Y12515D01*
G01X1800Y13325D01*
G01X1800Y13665D01*
G01X975Y13485D01*
G01X795Y13665D01*
G01X800Y17167D01*
G01X1298Y17665D01*
G01X1800Y17665D01*
G01X12690Y6945D02*
G01X13319Y6945D01*
G01X13319Y6841D01*
G01X15694Y12005D02*
G01X16289Y12005D01*
G01X16300Y11995D01*
G54D10*
G01X11765Y5277D02*
G01X12680Y5277D01*
G01X12790Y5167D01*
G01X13818Y5191D02*
G01X13818Y5629D01*
G01X13600Y5847D01*
G01X13319Y6127D01*
G01X13319Y6132D01*
G01X14802Y5191D02*
G01X14802Y5676D01*
G01X15045Y5919D01*
G54D11*
G01X17139Y17669D02*
G01X17795Y17669D01*
G54D12*
G01X14780Y16384D02*
G01X14780Y16540D01*
G01X14154Y17165D01*
G01X14158Y17169D01*
G01X14639Y17169D01*
G54D11*
G01X12710Y13445D02*
G01X13234Y12921D01*
G01X13319Y12921D01*
G54D12*
G01X16295Y13669D02*
G01X16280Y13684D01*
G01X16280Y14226D01*
G01X15780Y14226D02*
G01X15780Y13684D01*
G01X15795Y13669D01*
G01X15295Y13669D02*
G01X15280Y13684D01*
G01X15280Y14226D01*
G01X14780Y14226D02*
G01X14780Y13684D01*
G01X14795Y13669D01*
G54D10*
G01X15694Y12005D02*
G01X15694Y11670D01*
G01X15496Y11472D01*
G01X15250Y11472D01*
G01X14984Y11144D02*
G01X14984Y11244D01*
G01X15212Y11472D01*
G01X15250Y11472D01*
G01X15000Y11472D01*
G01X14791Y11264D01*
G01X14791Y11181D01*
G01X14999Y5191D02*
G01X14999Y5278D01*
G01X15545Y5824D01*
G01X16280Y14226D02*
G01X16280Y13684D01*
G01X16295Y13669D01*
G01X15780Y14226D02*
G01X15780Y13684D01*
G01X15795Y13669D01*
G01X15280Y14226D02*
G01X15280Y13684D01*
G01X15295Y13669D01*
G01X14780Y14226D02*
G01X14780Y13684D01*
G01X14795Y13669D01*
G54D11*
G01X13445Y17165D02*
G01X12800Y17165D01*
G01X12800Y17165D01*
G54D10*
G01X14590Y11144D02*
G01X14590Y11527D01*
G01X14985Y11922D01*
G01X14985Y12005D01*
G01X14605Y5191D02*
G01X14605Y5852D01*
G01X15266Y6513D01*
G01X15545Y6513D01*
G01X13025Y12477D02*
G01X13025Y12424D01*
G01X13808Y11642D01*
G01X13808Y11181D01*
G54D11*
G01X14950Y17669D02*
G01X14712Y17907D01*
G01X14360Y17907D01*
G01X3290Y16157D02*
G01X2768Y16157D01*
G01X2259Y16665D01*
G01X1800Y16665D01*
G54D10*
G01X14212Y5191D02*
G01X14212Y6459D01*
G01X14800Y7047D01*
G01X14015Y5191D02*
G01X14015Y6880D01*
G01X14000Y6895D01*
G01X13860Y12185D02*
G01X13860Y11935D01*
G01X14005Y11790D01*
G01X14005Y11181D01*
G01X5310Y20175D02*
G01X5310Y19855D01*
G01X5700Y19465D01*
G01X5500Y19165D02*
G01X5401Y19165D01*
G01X4391Y20175D01*
G01X4310Y20175D01*
G01X6970Y18127D02*
G01X9833Y18127D01*
G01X11295Y16669D01*
G01X6756Y17900D02*
G01X6859Y17807D01*
G01X9328Y17807D01*
G01X10984Y16151D01*
G01X10984Y15919D01*
G01X10955Y15955D02*
G01X11180Y15955D01*
G01X13860Y13275D01*
G01X13860Y12185D01*
G01X14200Y12095D02*
G01X14200Y13764D01*
G01X11295Y16669D01*
G01X14196Y11144D02*
G01X14196Y11176D01*
G01X14202Y11181D01*
G01X14200Y11183D01*
G01X14200Y12095D01*
G01X16450Y17669D02*
G01X16450Y17328D01*
G01X16290Y17117D01*
G01X16290Y16394D01*
G01X16280Y16384D01*
G54D11*
G01X10680Y17915D02*
G01X10864Y17915D01*
G01X11300Y17480D01*
G01X11300Y17480D02*
G01X11851Y17919D01*
G01X14595Y17919D01*
G01X14845Y17669D01*
G01X14950Y17669D01*
G01X11851Y17919D02*
G01X11847Y17915D01*
G01X10680Y17915D01*
G01X2460Y16269D02*
G01X2460Y19325D01*
G01X3300Y20165D01*
G54D12*
G01X2295Y21503D02*
G01X2295Y21995D01*
G01X2310Y22010D01*
G01X2295Y21995D01*
G01X2295Y21669D01*
G54D11*
G01X10325Y15955D02*
G01X9545Y16735D01*
G01X9480Y16735D01*
G54D10*
G01X3300Y7667D02*
G01X6498Y10866D01*
G01X13296Y10866D01*
G01X13296Y10669D02*
G01X7302Y10669D01*
G01X4300Y7667D01*
G01X5295Y7669D02*
G01X8098Y10472D01*
G01X13296Y10472D01*
G01X7295Y7669D02*
G01X9705Y10079D01*
G01X13296Y10079D01*
G01X8295Y7669D02*
G01X10508Y9882D01*
G01X13296Y9882D01*
G01X9295Y7669D02*
G01X11311Y9685D01*
G01X13296Y9685D01*
G01X10295Y7669D02*
G01X12114Y9488D01*
G01X13296Y9488D01*
G01X11295Y7669D02*
G01X12799Y9173D01*
G01X13611Y9173D01*
G01X12295Y7669D02*
G01X13105Y8479D01*
G01X13454Y8479D01*
G01X13808Y8833D01*
G01X13808Y9173D01*
G01X13295Y7669D02*
G01X13295Y7897D01*
G01X14005Y8606D01*
G01X14005Y9173D01*
G01X14295Y7669D02*
G01X14080Y7884D01*
G01X14080Y8335D01*
G01X14202Y8457D01*
G01X14202Y9173D01*
G01X15295Y7669D02*
G01X14397Y8566D01*
G01X14397Y9173D01*
G01X14594Y9173D02*
G01X14594Y8930D01*
G01X14590Y8925D01*
G01X16295Y7669D02*
G01X15681Y8282D01*
G01X15233Y8282D01*
G01X14590Y8925D01*
G01X17295Y7669D02*
G01X16127Y8837D01*
G01X14967Y8837D01*
G01X14787Y9017D01*
G01X14787Y9194D01*
G01X18295Y7669D02*
G01X16791Y9173D01*
G01X14988Y9173D01*
G01X19295Y7669D02*
G01X17476Y9488D01*
G01X15304Y9488D01*
G01X20295Y7669D02*
G01X18279Y9685D01*
G01X15304Y9685D01*
G01X21295Y7669D02*
G01X19082Y9882D01*
G01X15304Y9882D01*
G01X22295Y7669D02*
G01X19885Y10079D01*
G01X15304Y10079D01*
G01X14397Y11181D02*
G01X14397Y11745D01*
G01X14450Y11797D01*
G01X14450Y12465D01*
G54D11*
G01X15545Y5824D02*
G01X16249Y5824D01*
G01X16250Y5825D01*
G01X11660Y11427D02*
G01X11660Y12637D01*
G01X11500Y12797D01*
G01X7380Y12797D01*
G01X2250Y7667D01*
G01X2250Y7297D01*
G01X3610Y5937D01*
G01X11135Y5937D01*
G01X11135Y5937D01*
G01X11135Y5277D01*
G54D10*
G01X13621Y5191D02*
G01X13621Y5378D01*
G01X13606Y5392D01*
G54D11*
G01X15600Y6541D02*
G01X22639Y6513D01*
G01X23250Y7124D01*
G01X23250Y8047D01*
G01X18250Y13047D01*
G01X14750Y13047D01*
G01X14953Y12843D01*
G01X14953Y12037D01*
G01X14985Y12005D01*
G54D10*
G01X3295Y1669D02*
G01X6502Y4876D01*
G01X13306Y4876D01*
G01X4295Y1669D02*
G01X7305Y4679D01*
G01X13306Y4679D01*
G01X22295Y1669D02*
G01X19875Y4089D01*
G01X15313Y4089D01*
G01X21295Y1669D02*
G01X19072Y3892D01*
G01X15313Y3892D01*
G01X20295Y1669D02*
G01X18269Y3695D01*
G01X15313Y3695D01*
G01X19295Y1669D02*
G01X17466Y3498D01*
G01X15313Y3498D01*
G01X18295Y1669D02*
G01X16781Y3183D01*
G01X14999Y3183D01*
G01X17295Y1669D02*
G01X16157Y2807D01*
G01X14940Y2817D01*
G01X14800Y2967D01*
G01X14802Y3183D01*
G01X15295Y1669D02*
G01X14408Y2556D01*
G01X14408Y3183D01*
G01X14295Y1669D02*
G01X14212Y1752D01*
G01X14212Y3183D01*
G01X13295Y1669D02*
G01X14015Y2389D01*
G01X14015Y3183D01*
G01X11295Y1669D02*
G01X12803Y3177D01*
G01X13621Y3177D01*
G01X10295Y1669D02*
G01X12124Y3498D01*
G01X13306Y3498D01*
G01X9295Y1669D02*
G01X11321Y3695D01*
G01X13306Y3695D01*
G01X8295Y1669D02*
G01X10518Y3892D01*
G01X13306Y3892D01*
G01X7295Y1669D02*
G01X9715Y4089D01*
G01X13306Y4089D01*
G01X6295Y1669D02*
G01X8911Y4285D01*
G01X13306Y4285D01*
G01X5295Y1669D02*
G01X8108Y4482D01*
G01X13306Y4482D01*
G01X14610Y3197D02*
G01X14610Y2954D01*
G01X15780Y16384D02*
G01X15780Y17177D01*
G01X15639Y17317D01*
G01X15639Y17669D01*
G54D13*
G01X15639Y17669D02*
G01X15639Y18026D01*
G01X15760Y18147D01*
G54D11*
G01X13319Y12212D02*
G01X13034Y12212D01*
G01X12430Y12817D01*
G01X11374Y12817D01*
G54D10*
G01X12300Y1867D02*
G01X12980Y2537D01*
G01X13530Y2537D01*
G01X13818Y2825D01*
G01X13818Y3183D01*
G01X16295Y1669D02*
G01X15497Y2467D01*
G01X14860Y2467D01*
G01X14605Y2722D01*
G01X14605Y2940D01*
G54D11*
G01X13319Y6137D02*
G01X12618Y6137D01*
G01X12108Y6647D01*
G01X11460Y6647D01*
G01X11135Y6322D01*
G01X11135Y5937D01*
G54D10*
G01X6295Y7669D02*
G01X8901Y10275D01*
G01X13296Y10275D01*
G54D11*
G01X4310Y21175D02*
G01X2828Y21175D01*
G01X2480Y20827D01*
G01X2480Y20335D01*
G01X1800Y19655D01*
G01X1800Y18665D01*
G54D10*
G01X4295Y16229D02*
G01X4928Y16862D01*
G01X4928Y17375D01*
G01X6550Y18997D01*
G01X13050Y18997D01*
G01X13800Y19747D01*
G01X13800Y20685D01*
G01X13310Y21175D01*
G01X13303Y21169D01*
G01X13295Y21169D01*
G01X4295Y17229D02*
G01X4482Y17229D01*
G01X6450Y19197D01*
G01X12331Y19197D01*
G01X13310Y20175D01*
G01X3295Y19229D02*
G01X3295Y19242D01*
G01X3800Y19747D01*
G01X3800Y20397D01*
G01X4070Y20667D01*
G01X6520Y20667D01*
G01X6800Y20947D01*
G01X6800Y21497D01*
G01X7150Y21847D01*
G01X10638Y21847D01*
G01X11310Y21175D01*
G54D12*
G01X15280Y16384D02*
G01X15280Y15762D01*
G01X15539Y15502D01*
G01X19238Y15502D01*
G01X22913Y19178D01*
G01X22913Y21633D01*
G01X22200Y22347D01*
G01X4760Y22337D01*
G01X4720Y22277D01*
G01X4680Y22187D01*
G01X4616Y22083D01*
G01X4240Y21707D01*
G01X3351Y21707D01*
G01X2800Y22259D01*
G01X2800Y22665D01*
G01X2774Y22640D01*
G01X2310Y22640D01*
G01X1295Y22669D02*
G01X2281Y22669D01*
G01X2310Y22640D01*
G54D10*
G01X16450Y17669D02*
G01X16450Y18016D01*
G01X16330Y18137D01*
G54D11*
G01X14154Y17165D02*
G01X14569Y17580D01*
G01X15039Y17580D01*
G01X14950Y17669D01*
G54D10*
G01X13611Y11181D02*
G01X13367Y11424D01*
G01X12344Y11424D01*
G01X12900Y11747D02*
G01X12600Y12047D01*
G01X12344Y12047D01*
G01X11764Y5937D02*
G01X12040Y5937D01*
G01X12430Y5547D01*
G01X13419Y5537D01*
G01X13606Y5392D01*
G01X14408Y5191D02*
G01X14408Y6055D01*
G01X14600Y6247D01*
G01X3295Y17229D02*
G01X3295Y17251D01*
G01X2824Y17723D01*
G01X2824Y18471D01*
G01X3020Y18667D01*
G01X3551Y18667D01*
G01X3800Y18915D01*
G01X3800Y19365D01*
G01X4071Y19637D01*
G01X4610Y19637D01*
G01X4850Y19397D01*
G01X4850Y19147D01*
G01X5100Y18897D01*
G01X5650Y18897D01*
G01X6350Y19597D01*
G01X7480Y19597D01*
G01X7800Y19917D01*
G01X7800Y20665D01*
G01X8310Y21175D01*
G01X3295Y18229D02*
G01X3453Y18229D01*
G01X3921Y18697D01*
G01X5700Y18697D01*
G01X6400Y19397D01*
G01X11350Y19397D01*
G01X11800Y19847D01*
G01X11800Y21547D01*
G01X12318Y22065D01*
G01X13419Y22065D01*
G01X14310Y21175D01*
G01X3300Y15165D02*
G01X3500Y15165D01*
G01X4000Y15665D01*
G01X4800Y15665D01*
G01X5100Y15965D01*
G01X5100Y17265D01*
G01X6600Y18765D01*
G01X13400Y18765D01*
G01X14310Y19675D01*
G01X14310Y20175D01*
G01X15310Y21175D02*
G01X15800Y20685D01*
G01X15800Y19465D01*
G01X14700Y18365D01*
G01X6800Y18365D01*
G01X5500Y17065D01*
G01X5500Y15365D01*
G01X4800Y14665D01*
G01X3000Y14665D01*
G01X2800Y14865D01*
G01X2800Y15465D01*
G01X3000Y15665D01*
G01X3600Y15665D01*
G01X3800Y15865D01*
G01X3800Y17665D01*
G01X4300Y18165D01*
G01X12310Y20175D02*
G01X12800Y20665D01*
G01X12800Y21465D01*
G01X13000Y21665D01*
G01X13500Y21665D01*
G01X13800Y21365D01*
G01X13800Y20965D01*
G01X14100Y20665D01*
G01X14600Y20665D01*
G01X14800Y20465D01*
G01X14800Y19465D01*
G01X14700Y19465D01*
G01X13800Y18565D01*
G01X6700Y18565D01*
G01X5300Y17165D01*
G01X5300Y15665D01*
G01X4800Y15165D01*
G01X4300Y15165D01*
G54D11*
G01X9480Y16735D02*
G01X6901Y14157D01*
G01X4440Y14157D01*
G01X3702Y13419D01*
G01X3046Y13419D01*
G01X2600Y13865D01*
G01X2600Y14359D01*
G01X2400Y14559D01*
G01X2400Y16065D01*
G01X1800Y16665D01*
G01X7545Y14169D02*
G01X7545Y14801D01*
G01X7545Y14169D02*
G01X6614Y14169D01*
G54D14*
G01X13780Y10059D02*
G01X13780Y9815D01*
G54D15*
G01X16280Y16203D02*
G01X16280Y16565D01*
G01X15780Y16203D02*
G01X15780Y16565D01*
G01X15280Y16203D02*
G01X15280Y16565D01*
G01X14780Y16203D02*
G01X14780Y16565D01*
G01X16280Y14045D02*
G01X16280Y14408D01*
G01X15780Y14045D02*
G01X15780Y14408D01*
G01X15280Y14045D02*
G01X15280Y14408D01*
G01X14780Y14045D02*
G01X14780Y14408D01*
G54D18*
G01X14310Y4187D03*
G54D19*
G01X13310Y4876D03*
G01X13310Y4679D03*
G01X13310Y4482D03*
G01X13310Y4285D03*
G01X13310Y4088D03*
G01X13310Y3891D03*
G01X13310Y3695D03*
G01X13310Y3498D03*
G54D20*
G01X13621Y3187D03*
G01X13817Y3187D03*
G01X14014Y3187D03*
G01X14211Y3187D03*
G01X14408Y3187D03*
G01X14605Y3187D03*
G01X14802Y3187D03*
G01X14999Y3187D03*
G54D19*
G01X15310Y3498D03*
G01X15310Y3695D03*
G01X15310Y3891D03*
G01X15310Y4088D03*
G01X15310Y4285D03*
G01X15310Y4482D03*
G01X15310Y4679D03*
G01X15310Y4876D03*
G54D20*
G01X14999Y5187D03*
G01X14802Y5187D03*
G01X14605Y5187D03*
G01X14408Y5187D03*
G01X14211Y5187D03*
G01X14014Y5187D03*
G01X13817Y5187D03*
G01X13621Y5187D03*
G54D18*
G01X14300Y10177D03*
G54D19*
G01X13300Y10866D03*
G01X13300Y10669D03*
G01X13300Y10472D03*
G01X13300Y10275D03*
G01X13300Y10078D03*
G01X13300Y9881D03*
G01X13300Y9685D03*
G01X13300Y9488D03*
G54D20*
G01X13611Y9177D03*
G01X13807Y9177D03*
G01X14004Y9177D03*
G01X14201Y9177D03*
G01X14398Y9177D03*
G01X14595Y9177D03*
G01X14792Y9177D03*
G01X14988Y9177D03*
G54D19*
G01X15300Y9488D03*
G01X15300Y9685D03*
G01X15300Y9881D03*
G01X15300Y10078D03*
G01X15300Y10275D03*
G01X15300Y10472D03*
G01X15300Y10669D03*
G01X15300Y10866D03*
G54D20*
G01X14988Y11177D03*
G01X14792Y11177D03*
G01X14595Y11177D03*
G01X14398Y11177D03*
G01X14201Y11177D03*
G01X14004Y11177D03*
G01X13807Y11177D03*
G01X13611Y11177D03*
G54D21*
G01X13445Y17165D03*
G01X14154Y17165D03*
G54D22*
G01X2310Y22640D03*
G01X2310Y22010D03*
G54D21*
G01X17140Y17669D03*
G01X16510Y17669D03*
G01X14955Y17747D03*
G01X15584Y17747D03*
G01X10325Y15955D03*
G01X10954Y15955D03*
G54D22*
G01X11300Y17480D03*
G01X11300Y16850D03*
G01X13319Y12212D03*
G01X13319Y12921D03*
G01X15600Y5832D03*
G01X15600Y6541D03*
G54D21*
G01X11135Y5277D03*
G01X11764Y5277D03*
G01X11765Y5937D03*
G01X11135Y5937D03*
G01X12345Y11377D03*
G01X11715Y11377D03*
G01X11714Y12047D03*
G01X12344Y12047D03*
G01X15694Y12005D03*
G01X14985Y12005D03*
G54D22*
G01X13319Y6132D03*
G01X13319Y6841D03*
G54D23*
G01X4300Y19165D03*
G01X4300Y18165D03*
G01X4300Y17165D03*
G01X4300Y16165D03*
G01X4300Y15165D03*
G01X4300Y14165D03*
G01X3300Y14165D03*
G01X3300Y15165D03*
G01X3300Y16165D03*
G01X3300Y17165D03*
G01X3300Y18165D03*
G01X22300Y21165D03*
G01X22300Y20165D03*
G01X21300Y21165D03*
G01X21300Y20165D03*
G01X20300Y21165D03*
G01X20300Y20165D03*
G01X19300Y21165D03*
G01X19300Y20165D03*
G01X18300Y20165D03*
G01X17300Y21165D03*
G01X17300Y20165D03*
G01X16300Y21165D03*
G01X16300Y20165D03*
G01X15300Y21165D03*
G01X15300Y20165D03*
G01X14300Y21165D03*
G01X14300Y20165D03*
G01X13300Y21165D03*
G01X13300Y20165D03*
G01X12300Y21165D03*
G01X12300Y20165D03*
G01X11300Y21165D03*
G01X11300Y20165D03*
G01X10300Y21165D03*
G01X10300Y20165D03*
G01X9300Y21165D03*
G01X9300Y20165D03*
G01X8300Y21165D03*
G01X8300Y20165D03*
G01X7300Y21165D03*
G01X7300Y20165D03*
G01X6300Y21165D03*
G01X6300Y20165D03*
G01X5300Y21165D03*
G01X5300Y20165D03*
G01X4300Y21165D03*
G01X4300Y20165D03*
G01X3300Y21165D03*
G54D24*
G01X3300Y7665D03*
G01X4300Y7665D03*
G01X5300Y7665D03*
G01X6300Y7665D03*
G01X7300Y7665D03*
G01X8300Y7665D03*
G01X9300Y7665D03*
G01X10300Y7665D03*
G01X11300Y7665D03*
G01X12300Y7665D03*
G01X13300Y7665D03*
G01X14300Y7665D03*
G01X15300Y7665D03*
G01X16300Y7665D03*
G01X17300Y7665D03*
G01X18300Y7665D03*
G01X19300Y7665D03*
G01X20300Y7665D03*
G01X21300Y7665D03*
G01X22300Y7665D03*
G01X22300Y1565D03*
G01X21300Y1565D03*
G01X20300Y1565D03*
G01X19300Y1565D03*
G01X18300Y1565D03*
G01X17300Y1565D03*
G01X16300Y1565D03*
G01X15300Y1565D03*
G01X13300Y1565D03*
G01X12300Y1565D03*
G01X11300Y1565D03*
G01X10300Y1565D03*
G01X9300Y1565D03*
G01X8300Y1565D03*
G01X7300Y1565D03*
G01X6300Y1565D03*
G01X5300Y1565D03*
G01X4300Y1565D03*
G01X3300Y1565D03*
G01X14300Y1565D03*
G54D23*
G01X22300Y21165D03*
G01X22300Y20165D03*
G01X21300Y21165D03*
G01X21300Y20165D03*
G01X20300Y21165D03*
G01X20300Y20165D03*
G01X19300Y21165D03*
G01X19300Y20165D03*
G01X18300Y21165D03*
G01X18300Y20165D03*
G01X17300Y21165D03*
G01X17300Y20165D03*
G01X16300Y21165D03*
G01X16300Y20165D03*
G01X15300Y21165D03*
G01X15300Y20165D03*
G01X14300Y21165D03*
G01X14300Y20165D03*
G01X13300Y21165D03*
G01X13300Y20165D03*
G01X12300Y21165D03*
G01X12300Y20165D03*
G01X11300Y21165D03*
G01X11300Y20165D03*
G01X10300Y21165D03*
G01X10300Y20165D03*
G01X9300Y21165D03*
G01X9300Y20165D03*
G01X8300Y21165D03*
G01X8300Y20165D03*
G01X7300Y21165D03*
G01X7300Y20165D03*
G01X6300Y21165D03*
G01X6300Y20165D03*
G01X5300Y21165D03*
G01X5300Y20165D03*
G01X4300Y21165D03*
G01X4300Y20165D03*
G01X3300Y21165D03*
G01X4300Y19165D03*
G01X4300Y18165D03*
G01X4300Y17165D03*
G01X4300Y16165D03*
G01X4300Y15165D03*
G01X4300Y14165D03*
G01X3300Y14165D03*
G01X3300Y15165D03*
G01X3300Y16165D03*
G01X3300Y17165D03*
G01X3300Y18165D03*
G54D25*
G01X800Y13665D03*
G54D26*
G01X1800Y13665D03*
G54D25*
G01X800Y10665D03*
G54D26*
G01X1800Y10665D03*
G54D23*
G01X3300Y7665D03*
G01X4300Y7665D03*
G01X5300Y7665D03*
G01X6300Y7665D03*
G01X7300Y7665D03*
G01X8300Y7665D03*
G01X9300Y7665D03*
G01X10300Y7665D03*
G01X11300Y7665D03*
G01X12300Y7665D03*
G01X13300Y7665D03*
G01X14300Y7665D03*
G01X15300Y7665D03*
G01X16300Y7665D03*
G01X17300Y7665D03*
G01X18300Y7665D03*
G01X19300Y7665D03*
G01X20300Y7665D03*
G01X21300Y7665D03*
G01X22300Y7665D03*
G01X22300Y1562D03*
G01X21300Y1562D03*
G01X20300Y1562D03*
G01X19300Y1562D03*
G01X18300Y1562D03*
G01X17300Y1562D03*
G01X16300Y1562D03*
G01X15300Y1562D03*
G01X13300Y1562D03*
G01X12300Y1562D03*
G01X11300Y1562D03*
G01X10300Y1562D03*
G01X9300Y1562D03*
G01X8300Y1562D03*
G01X7300Y1562D03*
G01X6300Y1562D03*
G01X5300Y1562D03*
G01X4300Y1562D03*
G01X3300Y1562D03*
G01X14300Y1562D03*
G01X4300Y19165D03*
G01X4300Y18165D03*
G01X4300Y17165D03*
G01X4300Y16165D03*
G01X4300Y15165D03*
G01X4300Y14165D03*
G01X3300Y14165D03*
G01X3300Y15165D03*
G01X3300Y16165D03*
G01X3300Y17165D03*
G01X3300Y18165D03*
G01X3300Y19165D03*
G01X22300Y21165D03*
G01X22300Y20165D03*
G01X21300Y21165D03*
G01X21300Y20165D03*
G01X20300Y21165D03*
G01X20300Y20165D03*
G01X19300Y21165D03*
G01X19300Y20165D03*
G01X18300Y21165D03*
G01X18300Y20165D03*
G01X17300Y21165D03*
G01X17300Y20165D03*
G01X16300Y21165D03*
G01X16300Y20165D03*
G01X15300Y21165D03*
G01X15300Y20165D03*
G01X14300Y21165D03*
G01X14300Y20165D03*
G01X13300Y21165D03*
G01X13300Y20165D03*
G01X12300Y21165D03*
G01X12300Y20165D03*
G01X11300Y21165D03*
G01X11300Y20165D03*
G01X10300Y21165D03*
G01X10300Y20165D03*
G01X9300Y21165D03*
G01X9300Y20165D03*
G01X8300Y21165D03*
G01X8300Y20165D03*
G01X7300Y21165D03*
G01X7300Y20165D03*
G01X6300Y21165D03*
G01X6300Y20165D03*
G01X5300Y21165D03*
G01X5300Y20165D03*
G01X4300Y21165D03*
G01X4300Y20165D03*
G01X3300Y21165D03*
G01X3300Y20165D03*
G54D25*
G01X800Y13665D03*
G54D26*
G01X1800Y13665D03*
G54D25*
G01X800Y10665D03*
G54D26*
G01X1800Y10665D03*
G54D27*
G01X1295Y22669D03*
G54D28*
G01X1800Y16665D03*
G54D29*
G01X1800Y17665D03*
G01X1800Y18665D03*
G54D30*
G01X1382Y20665D03*
G54D31*
G01X23878Y10760D03*
G01X23878Y22571D03*
G01X3800Y22571D03*
G01X3800Y10760D03*
G54D32*
G01X24217Y20665D03*
G01X1382Y1374D03*
G01X24217Y1374D03*
G54D16*
G01X12790Y5167D03*
G01X14600Y6247D03*
G54D11*
G01X11880Y13485D03*
G01X14750Y13047D03*
G54D17*
G01X13780Y10697D03*
G54D11*
G01X12800Y17165D03*
G54D17*
G01X14795Y13669D03*
G01X15295Y13669D03*
G01X15795Y13669D03*
G01X16295Y13669D03*
G54D11*
G01X16250Y5825D03*
G01X16300Y11995D03*
G01X12690Y6945D03*
G01X12710Y13445D03*
G54D17*
G01X14810Y10697D03*
G01X14810Y10317D03*
G01X14819Y9657D03*
G01X13790Y9667D03*
G01X14819Y9997D03*
G54D11*
G01X17795Y17669D03*
G01X10680Y17915D03*
G01X9480Y16735D03*
G01X7545Y14169D03*
G01X7545Y12797D03*
G54D17*
G01X15045Y5919D03*
G01X13600Y5847D03*
G01X2295Y21503D03*
G54D11*
G01X14360Y17907D03*
G54D16*
G01X14800Y7047D03*
G01X14000Y6895D03*
G01X13860Y12185D03*
G01X14200Y12095D03*
G54D17*
G01X14450Y12465D03*
G01X12900Y11747D03*
G01X5700Y19465D03*
G01X5500Y19165D03*
G01X6970Y18127D03*
G01X6756Y17900D03*
G01X15760Y18147D03*
G01X16330Y18137D03*
G01X13790Y9977D03*
G01X13790Y10317D03*
G01X13800Y4707D03*
G01X13780Y3677D03*
G01X13790Y3977D03*
G01X13800Y4377D03*
G01X14119Y4697D03*
G01X14500Y4727D03*
G01X14819Y4707D03*
G01X14819Y4387D03*
G01X14819Y3987D03*
G01X14819Y3657D03*
G01X14500Y3667D03*
G01X14150Y3657D03*
G01X14150Y3977D03*
G01X14119Y4357D03*
G01X14490Y4377D03*
G01X14500Y3957D03*
M00*
M02*
